<?xml version="1.0" encoding="UTF-8"?>
<svg version="1.1" xmlns="http://www.w3.org/2000/svg" width="500" height="500">
<path d="M0 0 C91.08 0 182.16 0 276 0 C276.0825 38.836875 276.165 77.67375 276.25 117.6875 C276.28641602 129.96283936 276.32283203 142.23817871 276.36035156 154.88549805 C276.37841797 169.84338379 276.37841797 169.84338379 276.3817749 176.8396759 C276.38551049 181.73952945 276.40053585 186.63921069 276.42230225 191.53901672 C276.44967543 197.78337938 276.45797643 204.02749036 276.4522891 210.27190745 C276.45347889 212.56712139 276.46144816 214.86234385 276.47686052 217.15750635 C276.49667839 220.25174373 276.49198981 223.34499602 276.48101807 226.43925476 C276.49266872 227.34269528 276.50431938 228.24613581 276.51632309 229.17695332 C276.47666716 233.32155283 276.34582934 235.449043 274.09493637 239.03504658 C271.14371905 241.80315192 269.59382399 242.12515118 265.65770912 242.12863445 C264.74006078 242.1318589 263.82241245 242.13508335 262.87695658 242.1384055 C261.86219134 242.1368569 260.8474261 242.1353083 259.8019104 242.13371277 C258.72904954 242.13597833 257.65618869 242.13824388 256.55081689 242.14057809 C252.93181641 242.14694198 249.31285314 242.1460872 245.69384766 242.14526367 C243.10894217 242.14825368 240.52403713 242.15165583 237.93913269 242.15544128 C231.63209764 242.16375922 225.32507193 242.16649664 219.01803185 242.16705366 C213.89273048 242.16752831 208.7674322 242.16958046 203.64213181 242.17275429 C189.12043922 242.18156417 174.59875403 242.18617317 160.07705875 242.18542381 C159.29366061 242.18538386 158.51026247 242.1853439 157.703125 242.18530273 C156.91877356 242.18526185 156.13442212 242.18522097 155.32630245 242.18517885 C142.61269486 242.18477234 129.89911689 242.19434228 117.18551786 242.2084411 C104.14056996 242.22279356 91.09563652 242.2297119 78.05068052 242.22884732 C70.72321344 242.22851495 63.3957774 242.23127962 56.06831741 242.24202538 C49.17866497 242.25206407 42.28907922 242.25180659 35.3994236 242.24450874 C32.86616101 242.24345908 30.3328944 242.24584822 27.79963875 242.2518692 C24.35036642 242.25953833 20.90132394 242.25497804 17.45205688 242.24723816 C16.44175309 242.25238172 15.43144929 242.25752529 14.39053023 242.26282471 C13.4676664 242.25822592 12.54480256 242.25362712 11.59397316 242.24888897 C10.79764461 242.24910634 10.00131606 242.24932371 9.18085635 242.24954766 C6.67717476 241.96306025 5.12165228 241.35289741 3 240 C0.96592903 236.94889355 0.74915032 236.35692568 0.73828697 232.92953968 C0.73082073 232.09774126 0.72335449 231.26594284 0.715662 230.40893841 C0.71759748 229.49578271 0.71953297 228.58262701 0.7215271 227.64179993 C0.71284859 226.18976921 0.71284859 226.18976921 0.70399475 224.70840454 C0.68690339 221.44009158 0.68412115 218.17191864 0.68115234 214.90356445 C0.67174698 212.5302785 0.66146863 210.15699587 0.6503849 207.78371716 C0.62305412 201.41290384 0.60771361 195.04211372 0.59480286 188.67125702 C0.58089859 182.6988974 0.55625301 176.72660128 0.5324707 170.75427246 C0.46915233 153.27371751 0.4231399 135.79310334 0.375 118.3125 C0.25125 79.269375 0.1275 40.22625 0 0 Z M81 24 C81 36.87 81 49.74 81 63 C83.31 63 85.62 63 88 63 C88.10849626 52.93395765 87.9767249 43.02887177 87 33 C90.14753018 34.57376509 90.27992656 37.17516713 91.3828125 40.44140625 C91.60194305 41.08367661 91.82107361 41.72594696 92.04684448 42.38768005 C92.74652585 44.44366755 93.43584953 46.50296159 94.125 48.5625 C94.59697921 49.95530774 95.06962704 51.34788909 95.54296875 52.74023438 C96.70308821 56.15756141 97.8539421 59.57792795 99 63 C100.65 63 102.3 63 104 63 C106.85754595 57.52045419 109.18961877 52.09315394 111.1875 46.25 C111.44724609 45.50878906 111.70699219 44.76757812 111.97460938 44.00390625 C113.12625672 40.68882836 114.18394051 37.41579863 115 34 C115.66 34 116.32 34 117 34 C116.83628906 34.74507812 116.67257813 35.49015625 116.50390625 36.2578125 C115.8017028 41.47262574 115.89543577 46.62020731 115.9375 51.875 C115.94201172 52.94492188 115.94652344 54.01484375 115.95117188 55.1171875 C115.96290251 57.74484986 115.97931772 60.37239538 116 63 C118.31 63 120.62 63 123 63 C123 49.8 123 36.6 123 23 C119.7 23 116.4 23 113 23 C112.45730469 24.43472656 111.91460937 25.86945313 111.35546875 27.34765625 C110.632891 29.25263395 109.91023037 31.1575802 109.1875 33.0625 C108.83107422 34.00544922 108.47464844 34.94839844 108.10742188 35.91992188 C106.1784773 40.99888602 104.18673371 46.02638799 102 51 C99.00674651 45.32515499 96.74983254 39.73388753 94.8125 33.625 C94.2993885 32.0334631 93.78512144 30.44229814 93.26953125 28.8515625 C93.04885986 28.15885254 92.82818848 27.46614258 92.60083008 26.75244141 C92.01721578 24.92363245 92.01721578 24.92363245 91 23 C89.72125 22.979375 88.4425 22.95875 87.125 22.9375 C86.40570313 22.92589844 85.68640625 22.91429687 84.9453125 22.90234375 C82.91814596 22.87350758 82.91814596 22.87350758 81 24 Z M144 23 C140.73202156 29.19234394 138.25959077 35.46310908 135.9375 42.0625 C132.12728912 52.81092346 132.12728912 52.81092346 130.25390625 56.99609375 C128.80739411 59.91889596 128.80739411 59.91889596 129 63 C131.31 63 133.62 63 136 63 C136.99 60.36 137.98 57.72 139 55 C147.415 54.505 147.415 54.505 156 54 C156.66 56.97 157.32 59.94 158 63 C160.64 63 163.28 63 166 63 C164.16490135 57.12563392 162.27033309 51.37711654 159.625 45.8125 C156.14462315 38.43973907 153.62907696 30.70653831 151 23 C148.69 23 146.38 23 144 23 Z M164 23 C165.84900165 27.31433719 167.71485612 31.53743295 170.01171875 35.6328125 C175.15756436 44.97707365 177.24701573 52.25481587 177 63 C179.31 63 181.62 63 184 63 C183.94457031 62.08863281 183.88914062 61.17726562 183.83203125 60.23828125 C183.76909447 47.58798803 188.61431535 38.73461487 195.00610352 28.0144043 C196.22123426 25.92598357 196.22123426 25.92598357 196 23 C193.69 23 191.38 23 189 23 C188.52949219 24.13179687 188.05898438 25.26359375 187.57421875 26.4296875 C186.94578745 27.91165982 186.31685504 29.39341973 185.6875 30.875 C185.37876953 31.62136719 185.07003906 32.36773437 184.75195312 33.13671875 C184.44580078 33.85214844 184.13964844 34.56757813 183.82421875 35.3046875 C183.54666748 35.96452637 183.26911621 36.62436523 182.9831543 37.30419922 C182 39 182 39 179 41 C178.90847656 40.48953125 178.81695312 39.9790625 178.72265625 39.453125 C177.70979202 36.01486157 176.06779568 32.92665535 174.4375 29.75 C174.10814453 29.1003125 173.77878906 28.450625 173.43945312 27.78125 C172.62992435 26.18565706 171.81544958 24.59257517 171 23 C168.69 23 166.38 23 164 23 Z M101.64453125 86.046875 C101.02406418 86.25934875 100.40359711 86.47182251 99.764328 86.69073486 C98.44975564 87.14242552 97.13599572 87.59648656 95.82299805 88.05273438 C93.83957696 88.74060938 91.85270202 89.41766999 89.86523438 90.09375 C83.33630476 92.33674976 77.07288994 94.69733558 71 98 C71 102.29 71 106.58 71 111 C72.50433594 110.566875 74.00867188 110.13375 75.55859375 109.6875 C77.51820934 109.12493093 79.47784583 108.56243468 81.4375 108 C82.43072266 107.71382812 83.42394531 107.42765625 84.44726562 107.1328125 C85.39150391 106.86210937 86.33574219 106.59140625 87.30859375 106.3125 C88.18314209 106.06113281 89.05769043 105.80976563 89.95874023 105.55078125 C92 105 92 105 93 105 C93.33 128.43 93.66 151.86 94 176 C99.61 176 105.22 176 111 176 C111 145.64 111 115.28 111 84 C107.46394088 84 104.99282702 84.89953223 101.64453125 86.046875 Z M140 84 C140 88.29 140 92.58 140 97 C155.51 97 171.02 97 187 97 C185.68 99.64 184.36 102.28 183 105 C182.39033815 106.46851089 181.80242563 107.94651451 181.25 109.4375 C177.41849091 119.22745827 172.70253889 128.69849597 167.9375 138.0625 C165.25912938 143.3537376 162.88628995 148.74979268 160.5480957 154.19702148 C158.54435305 158.84101615 156.36762823 163.34547668 153.9453125 167.7890625 C152.66732655 170.53685832 152.66732655 170.53685832 152 176 C157.61 176 163.22 176 169 176 C173.94750476 166.50079087 178.04169405 156.59546797 182.2421875 146.75 C185.84997496 138.29422433 189.47864324 129.86942453 193.38671875 121.546875 C196.04141175 115.71040709 198.52608569 109.80028222 201.01757812 103.89257812 C201.57541992 102.57676758 201.57541992 102.57676758 202.14453125 101.234375 C202.47815674 100.44256836 202.81178223 99.65076172 203.15551758 98.83496094 C204 97 204 97 205 96 C205 92.04 205 88.08 205 84 C183.55 84 162.1 84 140 84 Z M97 195 C97.40535358 198.37794649 97.83736763 201.52294506 98.9375 204.75 C100.19555948 208.59818195 100.85963971 212.42795666 101.53515625 216.4140625 C101.93592577 218.64355347 102.41951892 220.81163769 103 223 C104.65 223 106.3 223 108 223 C110.39073445 219.17482487 110.55966552 215.40334476 111 211 C110.67 211.66 110.34 212.32 110 213 C109.01 213 108.02 213 107 213 C107 213.66 107 214.32 107 215 C106.34 215 105.68 215 105 215 C104.87625 213.72125 104.7525 212.4425 104.625 211.125 C104.06428535 206.01355779 103.08030341 201.02393526 102 196 C100.35 195.67 98.7 195.34 97 195 Z M112 195 C110.18397483 199.53832753 110.18397483 199.53832753 111 204 C111.99 204.33 112.98 204.66 114 205 C114.99 206.485 114.99 206.485 116 208 C116.99 208.66 117.98 209.32 119 210 C118.71617054 208.24871182 118.42260471 206.49899997 118.125 204.75 C117.88136719 203.28820312 117.88136719 203.28820312 117.6328125 201.796875 C117.05144152 199.22735883 116.29159735 197.27928944 115 195 C114.01 195 113.02 195 112 195 Z M126 195 C125.32923511 197.76989964 124.66323683 200.54079742 124 203.3125 C123.80921875 204.09818359 123.6184375 204.88386719 123.421875 205.69335938 C123.24140625 206.45068359 123.0609375 207.20800781 122.875 207.98828125 C122.70742187 208.68477783 122.53984375 209.38127441 122.3671875 210.09887695 C121.90518116 212.16821738 121.90518116 212.16821738 122 215 C121.34 215 120.68 215 120 215 C119.67 214.01 119.34 213.02 119 212 C118.01 211.34 117.02 210.68 116 210 C116.31182069 211.41681634 116.62448737 212.83344651 116.9375 214.25 C117.11152344 215.03890625 117.28554687 215.8278125 117.46484375 216.640625 C117.947556 218.76878703 118.46163178 220.88532842 119 223 C120.65 223 122.3 223 124 223 C124.64939736 220.62592408 125.29460053 218.2508361 125.9375 215.875 C126.11990234 215.20984375 126.30230469 214.5446875 126.49023438 213.859375 C128.1715613 207.62318059 129.10569033 201.38792625 130 195 C128.68 195 127.36 195 126 195 Z M135 195 C135.66 196.32 136.32 197.64 137 199 C136.01 199.495 136.01 199.495 135 200 C135 207.59 135 215.18 135 223 C140.94 223 146.88 223 153 223 C153 221.68 153 220.36 153 219 C148.38 219 143.76 219 139 219 C139 216.03 139 213.06 139 210 C139.66 209.67 140.32 209.34 141 209 C140.67 208.34 140.34 207.68 140 207 C139.77377919 205.29636178 139.59111527 203.58671299 139.4375 201.875 C139.35371094 200.96492187 139.26992187 200.05484375 139.18359375 199.1171875 C139.12300781 198.41851562 139.06242188 197.71984375 139 197 C139.33 197.66 139.66 198.32 140 199 C144.29 199 148.58 199 153 199 C153 197.68 153 196.36 153 195 C147.06 195 141.12 195 135 195 Z M159 195 C159 204.24 159 213.48 159 223 C168.33221743 223.28506676 168.33221743 223.28506676 176 220 C179.8165391 215.78267875 180.11072141 211.52755347 180 206 C179.10853792 202.31529006 178.35716904 200.09417695 175.3671875 197.68359375 C169.53776891 194.29686676 166.2570379 195 159 195 Z M144 207 C144 207.66 144 208.32 144 209 C146.31 209.33 148.62 209.66 151 210 C151 209.01 151 208.02 151 207 C148.69 207 146.38 207 144 207 Z " fill="#E8E9E3" transform="translate(112,173)"/>
<path d="M0 0 C1.39515777 0.0533791 2.79034021 0.10611759 4.18554688 0.15820312 C7.56144245 0.28669742 10.9370115 0.4237228 14.3125 0.5625 C14.3125 5.8425 14.3125 11.1225 14.3125 16.5625 C13.6525 16.5625 12.9925 16.5625 12.3125 16.5625 C10.09496453 23.2151064 8.97166063 29.17572272 11.9375 35.75 C14.30438012 40.01374149 17.43344245 43.64962809 22.234375 45.171875 C28.43096298 46.33664718 33.96407263 46.12080045 39.515625 42.9453125 C43.55174227 39.83925703 45.84140762 36.15142361 46.75390625 31.13671875 C46.97246622 26.603362 46.39675089 23.33906355 44.3125 19.3125 C42.1895702 15.20693072 42.10189111 11.85640193 42.1875 7.265625 C42.20554687 6.00911133 42.22359375 4.75259766 42.2421875 3.45800781 C42.26539063 2.50249023 42.28859375 1.54697266 42.3125 0.5625 C56.75991674 -0.08863038 71.1665215 -0.7146657 85.625 -0.0625 C86.59574463 -0.01939697 87.56648926 0.02370605 88.56665039 0.06811523 C95.17118599 0.42118599 95.17118599 0.42118599 96.3125 1.5625 C96.30060832 4.0002952 96.21350015 6.38277033 96.0625 8.8125 C96.02189453 9.81603516 96.02189453 9.81603516 95.98046875 10.83984375 C95.71250813 15.23958421 94.7624301 17.94169421 92.3125 21.5625 C90.9811117 26.99046767 91.21577735 31.43022365 93.3125 36.5625 C96.59943469 41.53985824 99.59908917 43.84847675 105.3125 45.5625 C111.75619108 46.50293059 117.01627285 45.41757691 122.3125 41.5625 C126.13151826 37.24097934 128.04105333 32.31135274 128.3125 26.5625 C127.50139632 22.96783595 125.95800321 19.85350643 124.3125 16.5625 C124.24068179 13.84489892 124.21950494 11.15390612 124.25 8.4375 C124.25451172 7.68339844 124.25902344 6.92929688 124.26367188 6.15234375 C124.27546501 4.28902873 124.29340058 2.42575445 124.3125 0.5625 C141.63638321 -0.70234675 158.95479826 -0.5384801 176.3125 -0.4375 C177.0122868 16.66839964 177.0122868 16.66839964 173.15234375 22.80859375 C171.46052274 26.34174552 172.29556929 29.91467112 173.3125 33.5625 C175.33860856 38.84077254 178.37150254 41.82918226 183.3125 44.5625 C188.78828663 46.38776221 194.21990347 46.36377023 199.5625 44.0625 C203.97698942 41.51975409 206.63070645 38.38208429 208.3125 33.5625 C209.34616606 26.13575848 209.34616606 26.13575848 206.79492188 19.4050293 C204.84753849 15.67094089 204.98217472 12.34798697 205.125 8.25 C205.13853516 7.50943359 205.15207031 6.76886719 205.16601562 6.00585938 C205.20114021 4.19108925 205.25494028 2.37669712 205.3125 0.5625 C210.98668403 0.46302674 216.6603515 0.39074751 222.33520508 0.34277344 C224.26237845 0.32275757 226.18949186 0.29553617 228.11645508 0.26074219 C230.89940252 0.21177959 233.68154156 0.18943083 236.46484375 0.171875 C237.31521713 0.15122986 238.16559052 0.13058472 239.04173279 0.10931396 C247.35872478 0.10625026 254.56836586 3.0280219 260.7421875 8.65625 C273.71579184 24.40530203 268.3125 50.64696569 268.3125 67.5625 C163.7025 67.5625 59.0925 67.5625 -48.6875 67.5625 C-48.6875 17.25439189 -48.6875 17.25439189 -39.2421875 6.9921875 C-28.72114092 -2.60898615 -13.11230652 -0.55072629 0 0 Z " fill="#E8E9E4" transform="translate(140.6875,95.4375)"/>
<path d="M0 0 C2.64590014 -0.02684679 5.29153096 -0.04676357 7.9375 -0.0625 C8.69224609 -0.07087891 9.44699219 -0.07925781 10.22460938 -0.08789062 C12.14994313 -0.09652441 14.07535581 -0.05224333 16 0 C17.91399028 1.91399028 17.13282266 4.7606465 17.14593023 7.30879903 C17.1455441 8.22463033 17.14515797 9.14046164 17.14476013 10.08404541 C17.14828698 11.04917392 17.15181382 12.01430242 17.15544754 13.00867724 C17.16619168 16.2691359 17.1698254 19.52956541 17.17358398 22.79003906 C17.1798849 25.11702093 17.18665017 27.44400157 17.19384766 29.77098083 C17.20855018 34.79543049 17.22026168 39.81987538 17.22979546 44.84433746 C17.24390347 52.11439324 17.26483671 59.38441416 17.28822399 66.6544455 C17.32617203 78.45565723 17.36112876 90.2568753 17.39282227 102.05810547 C17.395673 103.11845344 17.395673 103.11845344 17.39858133 104.20022258 C17.42540114 114.22746609 17.44927643 124.25471449 17.47196633 134.28196809 C17.47436229 135.34049691 17.47436229 135.34049691 17.47680664 136.42041016 C17.47919684 137.47765248 17.47919684 137.47765248 17.48163532 138.55625322 C17.50840052 150.30733365 17.54280053 162.05837698 17.58346039 173.80941749 C17.61027665 181.7067795 17.62815511 189.60409624 17.63949764 197.50149488 C17.64861006 202.41289662 17.66596575 207.32424331 17.68567657 212.23561287 C17.69316357 214.51688588 17.69723382 216.79817299 17.69767189 219.07945824 C17.69875136 222.18908857 17.71197205 225.29843761 17.72825623 228.40802002 C17.72563937 229.31492844 17.72302252 230.22183686 17.72032636 231.15622735 C17.66167796 237.38227458 17.66167796 237.38227458 20 243 C25.20006143 245.74617911 31.00534321 245.28502408 36.74157715 245.26742554 C38.36612894 245.27422221 38.36612894 245.27422221 40.02349997 245.28115618 C43.65307979 245.29381801 47.28250991 245.29217865 50.91210938 245.29052734 C53.51406548 245.29651135 56.11601981 245.3033166 58.7179718 245.31088257 C65.05187123 245.32747689 71.38573342 245.33299135 77.71965277 245.33410732 C82.86772861 245.33505828 88.01579218 245.33917094 93.16386414 245.34550858 C107.76247252 245.36311457 122.36105153 245.37234813 136.9596706 245.37084763 C138.13954821 245.37072776 138.13954821 245.37072776 139.34326172 245.37060547 C140.13080776 245.37052371 140.9183538 245.37044195 141.72976488 245.37035771 C154.50000369 245.36954437 167.27012468 245.38869556 180.0403294 245.4168822 C193.15548065 245.44560174 206.27057442 245.4594231 219.38575792 245.45769465 C226.74791982 245.45703056 234.1099581 245.46253153 241.47209167 245.48405075 C248.3930559 245.50415117 255.31375468 245.50359848 262.23473167 245.48901749 C264.77683582 245.48692105 267.31895608 245.49167962 269.86103249 245.5037384 C273.32713947 245.51911767 276.79233622 245.50993025 280.25842285 245.49447632 C281.26795438 245.50476344 282.27748591 245.51505057 283.31760931 245.52564943 C289.01612745 245.46937319 292.58693023 244.99120347 297 241 C298.70892523 238.17943838 299.25131154 236.08642761 299.26171303 232.80649185 C299.26917852 231.97296291 299.27664401 231.13943396 299.28433573 230.28064656 C299.282401 229.37014318 299.28046626 228.4596398 299.2784729 227.52154541 C299.2871615 226.064716 299.2871615 226.064716 299.29602563 224.57845569 C299.31306608 221.31561676 299.31590564 218.05291893 299.31884766 214.79003906 C299.32814303 212.45449983 299.33831111 210.11896394 299.34928894 207.78343201 C299.37664699 201.43470488 299.39175557 195.086 299.40471697 188.73722935 C299.41874178 182.77705437 299.44188019 176.81692077 299.46498732 170.85677513 C299.51045822 159.05150817 299.54707179 147.24623101 299.578125 135.44091797 C299.60830933 123.97312631 299.64265905 112.50535961 299.68261719 101.03759766 C299.68507874 100.3307306 299.68754028 99.62386354 299.69007643 98.89557627 C299.702451 95.34943368 299.71490754 91.80329138 299.72740483 88.25714922 C299.83097708 58.83813557 299.92003146 29.41908725 300 0 C302.64590014 -0.02684679 305.29153096 -0.04676357 307.9375 -0.0625 C308.69224609 -0.07087891 309.44699219 -0.07925781 310.22460938 -0.08789062 C312.14994313 -0.09652441 314.07535581 -0.05224333 316 0 C317.90209349 1.90209349 317.12838965 4.70611245 317.1384055 7.23780441 C317.1368569 8.14312534 317.1353083 9.04844627 317.13371277 9.98120117 C317.13597833 10.93534031 317.13824388 11.88947945 317.14057809 12.87253189 C317.1469496 16.09602287 317.1460867 19.31947214 317.14526367 22.54296875 C317.14825333 24.84375565 317.15165541 27.14454204 317.15544128 29.44532776 C317.16430837 35.71633668 317.16662062 41.98733197 317.16725707 48.25834656 C317.16820452 53.48916583 317.17188119 58.7199819 317.17542917 63.95079994 C317.18311864 75.58908885 317.18609687 87.22737109 317.18542381 98.86566234 C317.18536388 99.91418341 317.18536388 99.91418341 317.18530273 100.98388672 C317.18526185 101.68375489 317.18522097 102.38362307 317.18517885 103.10469937 C317.18477296 114.43115765 317.19432626 125.75758258 317.2084411 137.08403122 C317.22281852 148.71306685 317.22952748 160.34208472 317.22884732 171.97112942 C317.22859233 178.50008572 317.231444 185.02900437 317.24202538 191.55795288 C317.25171292 197.70398725 317.25178095 203.84994806 317.24450874 209.99598503 C317.2434635 212.24978683 317.2458222 214.50359323 317.2518692 216.75738716 C317.25960102 219.83932086 317.25493618 222.92100134 317.24723816 226.00292969 C317.25238172 226.89040484 317.25752529 227.77788 317.26282471 228.69224834 C317.20875957 238.51940605 315.49475367 246.40613417 309 254 C303.73959267 258.81775074 298.42708093 262.24284182 291.11791706 262.26006222 C289.67533401 262.2706606 289.67533401 262.2706606 288.20360786 262.2814731 C287.15498248 262.27905802 286.1063571 262.27664293 285.0259552 262.27415466 C283.90576183 262.27939134 282.78556847 262.28462802 281.63142985 262.29002339 C277.86989193 262.3050504 274.10848973 262.30572915 270.34692383 262.30639648 C267.65308053 262.31401621 264.9592487 262.32239448 262.26541138 262.33161926 C254.94089003 262.35445713 247.61639768 262.3623887 240.29184556 262.36744571 C235.71620837 262.37070442 231.14057957 262.377228 226.56494713 262.3844471 C213.89024152 262.40401218 201.21554371 262.42041668 188.54082203 262.42332363 C187.72992016 262.4235112 186.91901829 262.42369877 186.08354364 262.42389202 C184.43972186 262.42425827 182.79590009 262.42462197 181.15207831 262.42498314 C180.33610878 262.42516595 179.52013924 262.42534876 178.67944336 262.42553711 C177.86247491 262.42571766 177.04550646 262.42589821 176.20378139 262.42608423 C162.9705689 262.4296247 149.73751925 262.45663947 136.50436322 262.494035 C122.91009874 262.53214274 109.31591501 262.55148129 95.72159594 262.55178314 C88.09210021 262.55236719 80.4627987 262.56082507 72.83335304 262.58978081 C66.33574337 262.61432789 59.83839874 262.62155538 53.3407552 262.60653328 C50.02794809 262.59937746 46.71577127 262.60290034 43.40300179 262.62294388 C39.80453408 262.64338589 36.2074139 262.63286119 32.60896301 262.61473083 C31.57149124 262.6279308 30.53401948 262.64113077 29.46510917 262.65473074 C21.46152125 262.5628628 14.83390664 260.52833093 8.85247642 255.02364153 C0.64850377 246.32162568 -0.15778484 236.75517612 -0.12025452 225.23670959 C-0.12110894 224.27109382 -0.12196337 223.30547804 -0.12284368 222.31060117 C-0.12448685 219.08473394 -0.11899616 215.85891906 -0.11352539 212.63305664 C-0.11324324 210.31678265 -0.11340179 208.00050856 -0.1139679 205.68423462 C-0.11425479 199.40178381 -0.10837544 193.11935209 -0.10139394 186.83690572 C-0.09514248 180.26923675 -0.09455518 173.70156735 -0.09336853 167.13389587 C-0.09078018 156.11229115 -0.08436749 145.09069311 -0.07543945 134.0690918 C-0.06625477 122.71883174 -0.0591791 111.36857358 -0.05493164 100.01831055 C-0.05466892 99.31820565 -0.05440619 98.61810075 -0.05413551 97.89678056 C-0.05283043 94.38441827 -0.05156673 90.87205596 -0.05032361 87.35969365 C-0.03996372 58.23979121 -0.02228196 29.1198957 0 0 Z " fill="#DEDED9" transform="translate(92,173)"/>
<path d="M0 0 C3.22708322 2.74816673 4.7343993 4.46145613 5.46121216 8.67166138 C5.64597917 12.01130775 5.66654026 15.31556085 5.62890625 18.66015625 C5.63131821 19.88278671 5.63373016 21.10541718 5.63621521 22.36509705 C5.63523744 24.94468435 5.62186098 27.52429281 5.59692383 30.10375977 C5.56258853 34.05231938 5.57627844 37.99864423 5.59570312 41.94726562 C5.58880542 44.45573869 5.57913373 46.96420599 5.56640625 49.47265625 C5.57136612 50.65295914 5.57632599 51.83326202 5.58143616 53.04933167 C5.46398842 61.21783115 5.46398842 61.21783115 3.08959961 65.22045898 C-0.65149468 68.40644289 -3.71916079 68.44657517 -8.515625 68.42578125 C-11.37441739 67.93583098 -12.23871543 67.3296337 -14.0625 65.125 C-16.45033464 61.2736538 -17.12732368 59.55723339 -17.16113281 55.09472656 C-17.17074036 54.07316467 -17.1803479 53.05160278 -17.19024658 51.99908447 C-17.19449646 50.89079285 -17.19874634 49.78250122 -17.203125 48.640625 C-17.20882507 47.5034906 -17.21452515 46.3663562 -17.22039795 45.19476318 C-17.22985845 42.78382297 -17.23638608 40.37286977 -17.24023438 37.96191406 C-17.24992353 34.27906578 -17.28093104 30.59677931 -17.3125 26.9140625 C-17.31903156 24.57291998 -17.32428143 22.23177347 -17.328125 19.890625 C-17.3404718 18.7904303 -17.3528186 17.6902356 -17.36553955 16.55670166 C-17.34944685 11.01120036 -17.3222387 6.69509648 -14 2 C-9.08852553 -0.9279944 -5.49440994 -1.72972165 0 0 Z " fill="#E1E2DD" transform="translate(175,65)"/>
<path d="M0 0 C3.24518122 2.7420615 4.73358777 4.45401807 5.46047974 8.67214966 C5.6460673 12.01169673 5.66653963 15.31561618 5.62890625 18.66015625 C5.63131821 19.88278671 5.63373016 21.10541718 5.63621521 22.36509705 C5.63523744 24.94468435 5.62186098 27.52429281 5.59692383 30.10375977 C5.56258853 34.05231938 5.57627844 37.99864423 5.59570312 41.94726562 C5.58880542 44.45573869 5.57913373 46.96420599 5.56640625 49.47265625 C5.57136612 50.65295914 5.57632599 51.83326202 5.58143616 53.04933167 C5.46398842 61.21783115 5.46398842 61.21783115 3.08959961 65.22045898 C-0.65105898 68.40607184 -3.71900736 68.44960111 -8.515625 68.421875 C-11.35261242 67.94012242 -12.2341005 67.36006881 -14.0625 65.1875 C-16.43932029 61.27724727 -17.1256873 58.64731863 -17.16113281 54.16479492 C-17.17554413 52.69262764 -17.17554413 52.69262764 -17.19024658 51.1907196 C-17.19449646 50.13133682 -17.19874634 49.07195404 -17.203125 47.98046875 C-17.20882507 46.88914139 -17.21452515 45.79781403 -17.22039795 44.67341614 C-17.22984864 42.36260956 -17.2363822 40.05178949 -17.24023438 37.7409668 C-17.24993312 34.21183652 -17.28095372 30.68329028 -17.3125 27.15429688 C-17.31903085 24.90885762 -17.324281 22.66341421 -17.328125 20.41796875 C-17.3404718 19.36465866 -17.3528186 18.31134857 -17.36553955 17.22612 C-17.34604411 10.78912486 -16.67891763 6.37776571 -12.5625 1.1875 C-8.63362265 -1.79844679 -4.61100765 -1.21342307 0 0 Z " fill="#E0E1DB" transform="translate(337,65)"/>
<path d="M0 0 C3.12881175 2.74160879 4.73699979 4.49157225 5.459198 8.63371277 C5.62880945 11.91310533 5.64030284 15.15790106 5.59375 18.44140625 C5.59379028 19.64184067 5.59383057 20.84227509 5.59387207 22.0790863 C5.58852052 24.61161548 5.57095378 27.14414444 5.54199219 29.67651367 C5.50010875 33.55243663 5.50092819 37.42662306 5.5078125 41.30273438 C5.49732077 43.76563707 5.48438277 46.22853082 5.46875 48.69140625 C5.46854858 49.84983536 5.46834717 51.00826447 5.46813965 52.20179749 C5.44427185 53.82389381 5.44427185 53.82389381 5.41992188 55.47875977 C5.40729309 56.90056297 5.40729309 56.90056297 5.39440918 58.35108948 C4.78291533 62.4579728 2.89613556 65.10386444 0 68 C-5.09309337 68.77913667 -9.55806875 68.77864287 -14.125 66.3125 C-19.5960195 56.64703222 -17.11431942 40.89624887 -16.92285156 30.06787109 C-16.89072933 28.0084426 -16.86972014 25.94881317 -16.859375 23.88916016 C-16.844169 20.8835996 -16.79689329 17.88007039 -16.7421875 14.875 C-16.74298309 13.95726807 -16.74377869 13.03953613 -16.74459839 12.09399414 C-16.62479692 7.59650676 -16.46607497 5.6035531 -13.64111328 1.9453125 C-9.39801013 -1.17994595 -4.95711027 -1.95197566 0 0 Z " fill="#E2E3DD" transform="translate(256,65)"/>
<path d="M0 0 C6.27 0 12.54 0 19 0 C19.66 1.98 20.32 3.96 21 6 C21.66 4.35 22.32 2.7 23 1 C23.33 1 23.66 1 24 1 C24 10.24 24 19.48 24 29 C22.68 28.34 21.36 27.68 20 27 C19.34 27 18.68 27 18 27 C18 26.34 18 25.68 18 25 C13.38 25 8.76 25 4 25 C2.75 18.375 2.75 18.375 5 15 C4.67 14.34 4.34 13.68 4 13 C3.86322266 9.66263287 3.95716056 6.3414767 4 3 C8.29 3 12.58 3 17 3 C17.33 3.66 17.66 4.32 18 5 C18 3.68 18 2.36 18 1 C12.06 1 6.12 1 0 1 C0 0.67 0 0.34 0 0 Z M9 13 C9 13.66 9 14.32 9 15 C11.31 15.33 13.62 15.66 16 16 C16 15.01 16 14.02 16 13 C13.69 13 11.38 13 9 13 Z " fill="#D2D3CF" transform="translate(247,367)"/>
<path d="M0 0 C1.02835363 3.08506088 1.13368434 5.2694272 1.125 8.5 C1.12757813 9.4590625 1.13015625 10.418125 1.1328125 11.40625 C1 14 1 14 0 17 C-0.66 17 -1.32 17 -2 17 C-2 17.66 -2 18.32 -2 19 C-4.97 19 -7.94 19 -11 19 C-11.19585135 16.60458732 -11.38192107 14.20907226 -11.5625 11.8125 C-11.61857422 11.13896484 -11.67464844 10.46542969 -11.73242188 9.77148438 C-12.00963763 5.982869 -11.96511161 2.68172206 -11 -1 C-6.65621014 -2.01018369 -3.941316 -2.25218057 0 0 Z " fill="#D7D7D3" transform="translate(286,373)"/>
<path d="M0 0 C1.50559539 1.96382007 2.89131683 3.78263366 4 6 C5.97536745 5.65213292 5.97536745 5.65213292 8 5 C8.33 4.34 8.66 3.68 9 3 C9 3.66 9 4.32 9 5 C9.928125 5.2165625 9.928125 5.2165625 10.875 5.4375 C13 6 13 6 15 7 C15 6.34 15 5.68 15 5 C15.33 4.01 15.66 3.02 16 2 C16 2.66 16 3.32 16 4 C16.66 4 17.32 4 18 4 C18.33 4.99 18.66 5.98 19 7 C19.66 5.68 20.32 4.36 21 3 C20.34 2.67 19.68 2.34 19 2 C19.99 2 20.98 2 22 2 C22.33 1.34 22.66 0.68 23 0 C22.52013969 5.56890517 21.70084819 10.67067568 20 16 C18 16 18 16 16.375 14.5 C15.92125 14.005 15.4675 13.51 15 13 C15.33 14.98 15.66 16.96 16 19 C15.01 18.34 14.02 17.68 13 17 C11.35 17.99 9.7 18.98 8 20 C6.875 16.25 6.875 16.25 8 14 C7.01 14 6.02 14 5 14 C5 14.66 5 15.32 5 16 C4.34 16 3.68 16 3 16 C0.96780512 12.59648662 0.63108961 9.6767073 0.375 5.75 C0.30023438 4.67234375 0.22546875 3.5946875 0.1484375 2.484375 C0.09945312 1.66453125 0.05046875 0.8446875 0 0 Z " fill="#CCD1D0" transform="translate(214,372)"/>
<path d="M0 0 C0.99 0.33 1.98 0.66 3 1 C4.16674805 3.46850586 4.16674805 3.46850586 5.26171875 6.71484375 C5.65810547 7.87564453 6.05449219 9.03644531 6.46289062 10.23242188 C7.06907227 12.06643555 7.06907227 12.06643555 7.6875 13.9375 C8.10322266 15.15630859 8.51894531 16.37511719 8.94726562 17.63085938 C12 26.6687577 12 26.6687577 12 29 C11.01 28.67 10.02 28.34 9 28 C9 27.01 9 26.02 9 25 C7.68 24.67 6.36 24.34 5 24 C5.33 25.32 5.66 26.64 6 28 C5.360625 28.12375 4.72125 28.2475 4.0625 28.375 C3.381875 28.58125 2.70125 28.7875 2 29 C1.67 29.66 1.34 30.32 1 31 C0.34956362 20.6510926 -0.16494885 10.3734499 0 0 Z " fill="#CFD0CB" transform="translate(199,206)"/>
<path d="M0 0 C0.66 0 1.32 0 2 0 C2.83919398 2.26882087 3.67151724 4.53977027 4.5 6.8125 C4.73847656 7.45509766 4.97695313 8.09769531 5.22265625 8.75976562 C6.27068746 11.64933739 7 13.90076061 7 17 C3.49852959 18.1671568 0.67329964 18.13357453 -3 18 C-3.66 17.67 -4.32 17.34 -5 17 C-3.83348574 11.07136283 -2.24480642 5.61201606 0 0 Z " fill="#D3D4D0" transform="translate(258,205)"/>
<path d="M0 0 C6.27 0 12.54 0 19 0 C19 1.98 19 3.96 19 6 C17.88625 6.0825 16.7725 6.165 15.625 6.25 C11.94246056 6.57873787 11.94246056 6.57873787 10.5625 9.0625 C10.2840625 10.0215625 10.2840625 10.0215625 10 11 C11.32 11.33 12.64 11.66 14 12 C14 12.33 14 12.66 14 13 C12.35 13 10.7 13 9 13 C9 13.66 9 14.32 9 15 C9.99 15.33 10.98 15.66 12 16 C8.04 16.495 8.04 16.495 4 17 C4.33 16.34 4.66 15.68 5 15 C4.67 14.34 4.34 13.68 4 13 C3.86322266 9.66263287 3.95716056 6.3414767 4 3 C8.29 3 12.58 3 17 3 C17.33 3.66 17.66 4.32 18 5 C18 3.68 18 2.36 18 1 C12.06 1 6.12 1 0 1 C0 0.67 0 0.34 0 0 Z " fill="#BDBFBC" transform="translate(247,367)"/>
<path d="M0 0 C0.33 0 0.66 0 1 0 C0.52013969 5.56890517 -0.29915181 10.67067568 -2 16 C-4 16 -4 16 -5.625 14.5 C-6.07875 14.005 -6.5325 13.51 -7 13 C-7.99 13.66 -8.98 14.32 -10 15 C-11.61949011 12.42786866 -12.04408751 11.32330841 -11.625 8.25 C-11.41875 7.5075 -11.2125 6.765 -11 6 C-11.66 5.67 -12.32 5.34 -13 5 C-10.83125748 5.50603992 -9.00032373 5.99983813 -7 7 C-7 6.34 -7 5.68 -7 5 C-6.67 4.01 -6.34 3.02 -6 2 C-6 2.66 -6 3.32 -6 4 C-5.34 4 -4.68 4 -4 4 C-3.67 4.99 -3.34 5.98 -3 7 C-2.34 5.68 -1.68 4.36 -1 3 C-1.66 2.67 -2.32 2.34 -3 2 C-2.01 2 -1.02 2 0 2 C0 1.34 0 0.68 0 0 Z " fill="#D2D5D3" transform="translate(236,372)"/>
<path d="M0 0 C15.84 0 31.68 0 48 0 C46.875 5.625 46.875 5.625 44 8 C43.61781233 6.34385343 43.28604898 4.67542976 43 3 C43.33 2.67 43.66 2.34 44 2 C22.22 1.505 22.22 1.505 0 1 C0 0.67 0 0.34 0 0 Z " fill="#C8C8BB" transform="translate(251,270)"/>
<path d="M0 0 C1 2 1 2 0.00390625 5.0390625 C-0.47175781 6.22242188 -0.94742188 7.40578125 -1.4375 8.625 C-1.91058594 9.81351563 -2.38367188 11.00203125 -2.87109375 12.2265625 C-3.24363281 13.14179688 -3.61617187 14.05703125 -4 15 C-7 13 -7 13 -7.875 10.6875 C-8.0354818 7.23714126 -7.08386548 5.7013071 -5 3 C-4.34 3 -3.68 3 -3 3 C-3 2.34 -3 1.68 -3 1 C-2.01 0.67 -1.02 0.34 0 0 Z " fill="#BBBDB7" transform="translate(219,210)"/>
<path d="M0 0 C5.61 0 11.22 0 17 0 C16.67 0.66 16.34 1.32 16 2 C12.04 2 8.08 2 4 2 C4 3.65 4 5.3 4 7 C1 8 1 8 -2 8 C-2 8.66 -2 9.32 -2 10 C-2.66 9.67 -3.32 9.34 -4 9 C-2.68 6.03 -1.36 3.06 0 0 Z " fill="#C1C2BD" transform="translate(251,227)"/>
<path d="M0 0 C0.33 0.99 0.66 1.98 1 3 C1.66 3 2.32 3 3 3 C3 5.31 3 7.62 3 10 C4.32 10.33 5.64 10.66 7 11 C7.33 12.65 7.66 14.3 8 16 C7.01 15.34 6.02 14.68 5 14 C2.525 15.485 2.525 15.485 0 17 C-1.12377697 13.69564916 -0.89554742 11.9493138 0.4375 8.75 C0.72496094 8.04359375 1.01242188 7.3371875 1.30859375 6.609375 C1.53675781 6.07828125 1.76492187 5.5471875 2 5 C0.68 5.33 -0.64 5.66 -2 6 C-2 4.68 -2 3.36 -2 2 C-1.34 2 -0.68 2 0 2 C0 1.34 0 0.68 0 0 Z " fill="#BABCB9" transform="translate(222,375)"/>
<path d="M0 0 C0.66 0 1.32 0 2 0 C2.99 3.3 3.98 6.6 5 10 C4.01 9.67 3.02 9.34 2 9 C1.01 9.33 0.02 9.66 -1 10 C-1.73323796 12.01508358 -1.73323796 12.01508358 -2 14 C-2.66 14 -3.32 14 -4 14 C-2.85248597 9.2460133 -1.61737483 4.62107093 0 0 Z " fill="#AEAEAA" transform="translate(258,205)"/>
<path d="M0 0 C0.66 1.32 1.32 2.64 2 4 C0.02 4.66 -1.96 5.32 -4 6 C-4 14.91 -4 23.82 -4 33 C-4.33 33 -4.66 33 -5 33 C-5.14532035 28.43783535 -5.23408477 23.87626638 -5.3125 19.3125 C-5.35439453 18.01892578 -5.39628906 16.72535156 -5.43945312 15.39257812 C-5.45556641 14.14541016 -5.47167969 12.89824219 -5.48828125 11.61328125 C-5.51446533 10.46641846 -5.54064941 9.31955566 -5.56762695 8.13793945 C-4.8343812 4.08443077 -3.08947959 2.6105568 0 0 Z " fill="#ACADA9" transform="translate(245,65)"/>
<path d="M0 0 C2 2 2 2 2 5 C1.34 5 0.68 5 0 5 C0 5.66 0 6.32 0 7 C-3.93673644 5.68775452 -6.22719294 4.08089673 -9 1 C-8.443125 1.20625 -7.88625 1.4125 -7.3125 1.625 C-4.340462 2.10695211 -2.68020059 1.26565028 0 0 Z " fill="#CBCAC6" transform="translate(110,426)"/>
<path d="M0 0 C2.475 0.99 2.475 0.99 5 2 C3 3 1 4 -1 5 C-1.46651207 7.12576782 -1.46651207 7.12576782 -1.625 9.5625 C-1.69976562 10.38878906 -1.77453125 11.21507812 -1.8515625 12.06640625 C-1.90054688 12.70449219 -1.94953125 13.34257812 -2 14 C-2.33 14 -2.66 14 -3 14 C-3.33 11.36 -3.66 8.72 -4 6 C-4.99 6 -5.98 6 -7 6 C-7.33 5.01 -7.66 4.02 -8 3 C-5.23735711 2.40267181 -2.83967231 2 0 2 C0 1.34 0 0.68 0 0 Z " fill="#CCCDC8" transform="translate(185,266)"/>
<path d="M0 0 C1.65 0 3.3 0 5 0 C5 0.99 5 1.98 5 3 C4.34 3 3.68 3 3 3 C2.67 5.97 2.34 8.94 2 12 C1.34 12 0.68 12 0 12 C-0.19573608 10.56359829 -0.38127816 9.12580496 -0.5625 7.6875 C-0.66691406 6.88699219 -0.77132813 6.08648437 -0.87890625 5.26171875 C-1 3 -1 3 0 0 Z " fill="#F0F1EC" transform="translate(347,97)"/>
<path d="M0 0 C3.82669043 3.42388092 5.72278474 6.00724943 7 11 C5.68 10.34 4.36 9.68 3 9 C3.33 8.01 3.66 7.02 4 6 C3.01 6.33 2.02 6.66 1 7 C0.34 6.01 -0.32 5.02 -1 4 C-0.34 4 0.32 4 1 4 C0.67 2.68 0.34 1.36 0 0 Z M-3 6 C0 7 0 7 0 7 Z " fill="#B1B2AC" transform="translate(399,103)"/>
<path d="M0 0 C3.63 0 7.26 0 11 0 C11.33 1.65 11.66 3.3 12 5 C11.01 5.66 10.02 6.32 9 7 C9.33 5.35 9.66 3.7 10 2 C7.69 2 5.38 2 3 2 C2.67 3.65 2.34 5.3 2 7 C1.67 6.34 1.34 5.68 1 5 C0.34 4.67 -0.32 4.34 -1 4 C-0.34 3.34 0.32 2.68 1 2 C0.67 1.34 0.34 0.68 0 0 Z " fill="#B4B5AF" transform="translate(298,194)"/>
<path d="M0 0 C0.9075 0.61875 1.815 1.2375 2.75 1.875 C5.14948817 3.44389611 7.40961612 4.80443821 10 6 C7.36 6.66 4.72 7.32 2 8 C2 7.34 2 6.68 2 6 C1.01 5.67 0.02 5.34 -1 5 C-0.67 3.35 -0.34 1.7 0 0 Z " fill="#B1B2AD" transform="translate(155,136)"/>
<path d="M0 0 C0.66 0 1.32 0 2 0 C2 0.99 2 1.98 2 3 C2.66 2.01 3.32 1.02 4 0 C5.4606285 2.64738916 6 3.89448334 6 7 C5.34 7 4.68 7 4 7 C4 7.66 4 8.32 4 9 C4.66 9.33 5.32 9.66 6 10 C5.34 10.66 4.68 11.32 4 12 C2.68 8.04 1.36 4.08 0 0 Z " fill="#BBBBB6" transform="translate(265,203)"/>
<path d="M0 0 C2.97 0 5.94 0 9 0 C8.50168276 3.68754757 7.89932357 5.60490662 5 8 C4.61781233 6.34385343 4.28604898 4.67542976 4 3 C4.33 2.67 4.66 2.34 5 2 C3.35 1.67 1.7 1.34 0 1 C0 0.67 0 0.34 0 0 Z " fill="#8A8D89" transform="translate(290,270)"/>
<path d="M0 0 C1.5 1.375 1.5 1.375 3 3 C3 3.66 3 4.32 3 5 C-1.01804691 5.84098656 -4.01803543 6.05404945 -8 5 C-5.37352812 3.24901874 -2.71224618 1.61268692 0 0 Z " fill="#B3B4AE" transform="translate(344,137)"/>
<path d="M0 0 C2.97 0.495 2.97 0.495 6 1 C6 1.99 6 2.98 6 4 C0.25 5.125 0.25 5.125 -2 4 C-2 3.34 -2 2.68 -2 2 C-1.34 2 -0.68 2 0 2 C0 1.34 0 0.68 0 0 Z " fill="#DEDFDB" transform="translate(117,409)"/>
<path d="M0 0 C0.66 0.33 1.32 0.66 2 1 C1.67 2.32 1.34 3.64 1 5 C0.34 5 -0.32 5 -1 5 C-1 5.66 -1 6.32 -1 7 C-1.66 7 -2.32 7 -3 7 C-3.33 7.66 -3.66 8.32 -4 9 C-3.38461538 3.46153846 -3.38461538 3.46153846 -1.4375 1.125 C-0.963125 0.75375 -0.48875 0.3825 0 0 Z " fill="#BDBDBA" transform="translate(242,378)"/>
<path d="M0 0 C1 3 1 3 0.22265625 5.04296875 C-0.16019531 5.75066406 -0.54304688 6.45835937 -0.9375 7.1875 C-1.31777344 7.90292969 -1.69804687 8.61835938 -2.08984375 9.35546875 C-2.54037109 10.16951172 -2.54037109 10.16951172 -3 11 C-3.66 9.68 -4.32 8.36 -5 7 C-4.34 7 -3.68 7 -3 7 C-3.33 5.68 -3.66 4.36 -4 3 C-2.68 2.01 -1.36 1.02 0 0 Z " fill="#BBBBB9" transform="translate(270,330)"/>
<path d="M0 0 C1.32 1.32 2.64 2.64 4 4 C3.01 4.33 2.02 4.66 1 5 C1 7.97 1 10.94 1 14 C0.67 14 0.34 14 0 14 C0 9.38 0 4.76 0 0 Z " fill="#9C9D9C" transform="translate(246,368)"/>
<path d="M0 0 C1.98 0.495 1.98 0.495 4 1 C3.34 3.31 2.68 5.62 2 8 C1.67 7.01 1.34 6.02 1 5 C0.34 5 -0.32 5 -1 5 C-0.67 3.35 -0.34 1.7 0 0 Z " fill="#B6B6B1" transform="translate(243,218)"/>
<path d="M0 0 C0.66 0 1.32 0 2 0 C1.01 3.3 0.02 6.6 -1 10 C-3 7 -3 7 -4 4 C-3.34 4 -2.68 4 -2 4 C-1.34 2.68 -0.68 1.36 0 0 Z " fill="#B9B9B3" transform="translate(253,197)"/>
<path d="M0 0 C0.66 0.99 1.32 1.98 2 3 C1 5 1 5 -2 7 C-2.33 7.66 -2.66 8.32 -3 9 C-3.99 8.01 -4.98 7.02 -6 6 C-4 4 -2 2 0 0 Z " fill="#A1A29D" transform="translate(266,133)"/>
<path d="M0 0 C0.33 0 0.66 0 1 0 C0.67 4.95 0.34 9.9 0 15 C-0.33 15 -0.66 15 -1 15 C-2.39735099 4.34519868 -2.39735099 4.34519868 0 0 Z " fill="#727371" transform="translate(236,97)"/>
<path d="M0 0 C0.66 0 1.32 0 2 0 C2.33 1.65 2.66 3.3 3 5 C0.525 6.485 0.525 6.485 -2 8 C-1.34 5.36 -0.68 2.72 0 0 Z " fill="#9B9B9A" transform="translate(258,205)"/>
<path d="M0 0 C1.32 0.33 2.64 0.66 4 1 C3.34 4.63 2.68 8.26 2 12 C1.67 12 1.34 12 1 12 C0.67 8.04 0.34 4.08 0 0 Z " fill="#B9B9B5" transform="translate(148,114)"/>
<path d="M0 0 C1.65 1.32 3.3 2.64 5 4 C4.67 4.99 4.34 5.98 4 7 C3.01 7 2.02 7 1 7 C0.67 4.69 0.34 2.38 0 0 Z " fill="#D1D3CF" transform="translate(274,223)"/>
<path d="M0 0 C-1.4375 1.5625 -1.4375 1.5625 -4 3 C-7.05380927 2.96846324 -9.99653222 2.53266629 -13 2 C-13 1.67 -13 1.34 -13 1 C-8.61414671 0.29826347 -4.44209357 -0.10834375 0 0 Z " fill="#D7D8D5" transform="translate(361,419)"/>
<path d="M0 0 C1.46726798 3.81489674 0.43336419 6.29011622 -1 10 C-2.30048841 7.39902318 -2.56471422 4.86044938 -3 2 C-2.01 1.34 -1.02 0.68 0 0 Z " fill="#ACADA8" transform="translate(407,409)"/>
<path d="M0 0 C0.99 0.33 1.98 0.66 3 1 C2.67 3.31 2.34 5.62 2 8 C1.34 7.67 0.68 7.34 0 7 C0 4.69 0 2.38 0 0 Z " fill="#C8C9C5" transform="translate(213,217)"/>
<path d="M0 0 C0.6875 1.6875 0.6875 1.6875 1 4 C-0.3125 6.75 -0.3125 6.75 -2 9 C-2.66 9 -3.32 9 -4 9 C-2.80100302 5.9168649 -1.52299523 2.93720508 0 0 Z " fill="#A8A7A4" transform="translate(301,211)"/>
<path d="M0 0 C0.99 0.33 1.98 0.66 3 1 C2.34 4.96 1.68 8.92 1 13 C0.67 13 0.34 13 0 13 C0 8.71 0 4.42 0 0 Z " fill="#6A6B6B" transform="translate(199,206)"/>
<path d="M0 0 C2.86724686 0.57344937 3.8614515 0.8614515 6 3 C2.7 3 -0.6 3 -4 3 C-3.34 2.34 -2.68 1.68 -2 1 C-1.34 1.33 -0.68 1.66 0 2 C0 1.34 0 0.68 0 0 Z " fill="#ECEEEA" transform="translate(257,376)"/>
<path d="M0 0 C2.125 0.9375 2.125 0.9375 4 2 C4 2.66 4 3.32 4 4 C2.02 4.99 2.02 4.99 0 6 C-0.66 4.35 -1.32 2.7 -2 1 C-1.34 0.67 -0.68 0.34 0 0 Z " fill="#F2F2EE" transform="translate(217,373)"/>
<path d="M0 0 C0.66 1.32 1.32 2.64 2 4 C0.02 4.66 -1.96 5.32 -4 6 C-3.6875 4.125 -3.6875 4.125 -3 2 C-2.01 1.34 -1.02 0.68 0 0 Z " fill="#B9BAB6" transform="translate(245,65)"/>
<path d="M0 0 C1.65 0 3.3 0 5 0 C5 0.33 5 0.66 5 1 C3.35 1 1.7 1 0 1 C0 0.67 0 0.34 0 0 Z " fill="#FFFFFF" transform="translate(276,370)"/>
</svg>
