<?xml version="1.0" encoding="UTF-8"?>
<svg version="1.1" xmlns="http://www.w3.org/2000/svg" width="96" height="96">
<path d="M0 0 C0.70125 0.00515625 1.4025 0.0103125 2.125 0.015625 C2.82625 0.01046875 3.5275 0.0053125 4.25 0 C6.125 0.265625 6.125 0.265625 8.125 2.265625 C8.145625 3.503125 8.16625 4.740625 8.1875 6.015625 C8.76864442 13.41310921 13.98312212 19.38332166 18.125 25.265625 C19.115 24.935625 20.105 24.605625 21.125 24.265625 C23.69765818 24.19533379 26.24141431 24.17191668 28.8125 24.203125 C29.51439453 24.20763672 30.21628906 24.21214844 30.93945312 24.21679688 C32.66800538 24.22855573 34.39651365 24.24649046 36.125 24.265625 C36.40214844 23.51796875 36.67929687 22.7703125 36.96484375 22 C38.01039373 19.53574078 39.14015859 17.67728405 40.6875 15.515625 C43.15251617 11.7244013 43.73843788 8.62808051 43.88671875 4.1484375 C44.125 2.265625 44.125 2.265625 46.125 0.265625 C48 0 48 0 50.125 0.015625 C50.82625 0.01046875 51.5275 0.0053125 52.25 0 C54.125 0.265625 54.125 0.265625 56.125 2.265625 C56.390625 4.140625 56.390625 4.140625 56.375 6.265625 C56.38273437 7.3175 56.38273437 7.3175 56.390625 8.390625 C56.125 10.265625 56.125 10.265625 54.125 12.265625 C53.35800781 12.34039062 52.59101562 12.41515625 51.80078125 12.4921875 C47.87855016 13.62591269 46.38525034 16.33994609 44.3125 19.640625 C43.91232666 20.26533691 43.51215332 20.89004883 43.09985352 21.53369141 C39.67830688 27.26079373 39.31443719 31.60099747 40.125 38.265625 C45.405 38.265625 50.685 38.265625 56.125 38.265625 C56.785 36.945625 57.445 35.625625 58.125 34.265625 C64.1796875 34.0703125 64.1796875 34.0703125 66.125 34.265625 C68.125 36.265625 68.125 36.265625 68.390625 38.140625 C68.38546875 38.841875 68.3803125 39.543125 68.375 40.265625 C68.38273437 41.3175 68.38273437 41.3175 68.390625 42.390625 C68.125 44.265625 68.125 44.265625 66.125 46.265625 C63.43660615 46.53554406 60.83358064 46.35299857 58.125 46.265625 C57.135 44.285625 57.135 44.285625 56.125 42.265625 C50.845 42.265625 45.565 42.265625 40.125 42.265625 C40.125 44.245625 40.125 46.225625 40.125 48.265625 C39.465 48.265625 38.805 48.265625 38.125 48.265625 C38.0425 49.008125 37.96 49.750625 37.875 50.515625 C36.9853054 53.77783854 35.63996251 55.07517378 33.125 57.265625 C34.32125 57.6575 35.5175 58.049375 36.75 58.453125 C41.40392659 60.18904788 45.82298954 62.66160408 48.125 67.265625 C48.125 70.235625 48.125 73.205625 48.125 76.265625 C33.605 76.265625 19.085 76.265625 4.125 76.265625 C4.125 67.265625 4.125 67.265625 5.6875 64.453125 C9.56408806 60.97413571 13.87321779 58.10591015 19.125 57.265625 C18.3 56.3375 17.475 55.409375 16.625 54.453125 C14.125 51.640625 14.125 51.640625 14.125 48.265625 C13.465 48.265625 12.805 48.265625 12.125 48.265625 C12.125 46.285625 12.125 44.305625 12.125 42.265625 C6.845 42.265625 1.565 42.265625 -3.875 42.265625 C-4.535 43.585625 -5.195 44.905625 -5.875 46.265625 C-11.9296875 46.4609375 -11.9296875 46.4609375 -13.875 46.265625 C-15.875 44.265625 -15.875 44.265625 -16.140625 42.390625 C-16.13546875 41.689375 -16.1303125 40.988125 -16.125 40.265625 C-16.13015625 39.564375 -16.1353125 38.863125 -16.140625 38.140625 C-15.875 36.265625 -15.875 36.265625 -13.875 34.265625 C-11.18660615 33.99570594 -8.58358064 34.17825143 -5.875 34.265625 C-5.215 35.585625 -4.555 36.905625 -3.875 38.265625 C1.405 38.265625 6.685 38.265625 12.125 38.265625 C13.0563993 30.60745298 12.06776017 26.07934528 8 19.703125 C7.62174072 19.09581543 7.24348145 18.48850586 6.85375977 17.86279297 C4.10615608 13.82337562 1.82921402 12.39170456 -2.875 11.265625 C-4.76988952 9.37073548 -4.05519112 6.69423354 -4.10546875 4.17578125 C-3.77419122 1.43010818 -2.73892243 0.38801401 0 0 Z " fill="#BE6216" transform="translate(21.875,9.734375)"/>
<path d="M0 0 C0.4640625 1.7015625 0.4640625 1.7015625 0.9375 3.4375 C1.62924531 6.78775099 1.62924531 6.78775099 3 8 C5.95817107 8.25005386 5.95817107 8.25005386 9 8 C11.5654594 5.4345406 11.54046087 3.52313332 12 0 C18.13622132 1.67723383 22.41906779 3.5335911 27 8 C28 10 28 10 28 19 C13.48 19 -1.04 19 -16 19 C-16 10 -16 10 -14.4375 7.1875 C-10.49594018 3.65020273 -5.53668953 0 0 0 Z " fill="#1A9CE2" transform="translate(42,67)"/>
<path d="M0 0 C1.09344727 -0.03673828 1.09344727 -0.03673828 2.20898438 -0.07421875 C7.55560422 -0.10362271 7.55560422 -0.10362271 10.0234375 2.2265625 C11.17477495 4.60714746 11.69953147 6.7616266 12.0625 9.375 C12.7225 9.375 13.3825 9.375 14.0625 9.375 C14.0625 11.355 14.0625 13.335 14.0625 15.375 C13.4025 15.375 12.7425 15.375 12.0625 15.375 C11.959375 16.138125 11.85625 16.90125 11.75 17.6875 C11.01538806 20.55916484 10.3908935 21.60542094 8.0625 23.375 C7.4025 23.375 6.7425 23.375 6.0625 23.375 C6.124375 24.468125 6.18625 25.56125 6.25 26.6875 C6.0625 30.375 6.0625 30.375 4.9375 32.3125 C2.17269567 33.87922245 0.18061483 33.76476435 -2.9375 33.375 C-4.8125 32.3125 -4.8125 32.3125 -5.9375 30.375 C-6.125 26.6875 -6.125 26.6875 -5.9375 23.375 C-6.55625 23.106875 -7.175 22.83875 -7.8125 22.5625 C-9.9375 21.375 -9.9375 21.375 -11.9375 18.375 C-11.9375 17.385 -11.9375 16.395 -11.9375 15.375 C-12.5975 15.375 -13.2575 15.375 -13.9375 15.375 C-13.9375 13.395 -13.9375 11.415 -13.9375 9.375 C-13.2775 9.375 -12.6175 9.375 -11.9375 9.375 C-11.64875 8.26125 -11.36 7.1475 -11.0625 6 C-9.06130958 -0.44828025 -6.04079187 0.01062584 0 0 Z " fill="#F5BE37" transform="translate(47.9375,42.625)"/>
<path d="M0 0 C0.70125 0.00515625 1.4025 0.0103125 2.125 0.015625 C2.82625 0.01046875 3.5275 0.0053125 4.25 0 C6.125 0.265625 6.125 0.265625 8.125 2.265625 C8.390625 4.140625 8.390625 4.140625 8.375 6.265625 C8.38015625 6.966875 8.3853125 7.668125 8.390625 8.390625 C8.125 10.265625 8.125 10.265625 6.125 12.265625 C4.25 12.53125 4.25 12.53125 2.125 12.515625 C1.42375 12.52078125 0.7225 12.5259375 0 12.53125 C-1.875 12.265625 -1.875 12.265625 -3.875 10.265625 C-4.140625 8.390625 -4.140625 8.390625 -4.125 6.265625 C-4.13015625 5.564375 -4.1353125 4.863125 -4.140625 4.140625 C-3.75603481 1.4258707 -2.7147543 0.38459019 0 0 Z " fill="#E16001" transform="translate(81.875,43.734375)"/>
<path d="M0 0 C0.70125 0.00515625 1.4025 0.0103125 2.125 0.015625 C2.82625 0.01046875 3.5275 0.0053125 4.25 0 C6.125 0.265625 6.125 0.265625 8.125 2.265625 C8.390625 4.140625 8.390625 4.140625 8.375 6.265625 C8.38015625 6.966875 8.3853125 7.668125 8.390625 8.390625 C8.125 10.265625 8.125 10.265625 6.125 12.265625 C4.25 12.53125 4.25 12.53125 2.125 12.515625 C1.42375 12.52078125 0.7225 12.5259375 0 12.53125 C-1.875 12.265625 -1.875 12.265625 -3.875 10.265625 C-4.140625 8.390625 -4.140625 8.390625 -4.125 6.265625 C-4.13015625 5.564375 -4.1353125 4.863125 -4.140625 4.140625 C-3.75603481 1.4258707 -2.7147543 0.38459019 0 0 Z " fill="#E16001" transform="translate(9.875,43.734375)"/>
<path d="M0 0 C0.70125 0.00515625 1.4025 0.0103125 2.125 0.015625 C2.82625 0.01046875 3.5275 0.0053125 4.25 0 C6.125 0.265625 6.125 0.265625 8.125 2.265625 C8.390625 4.140625 8.390625 4.140625 8.375 6.265625 C8.38015625 6.966875 8.3853125 7.668125 8.390625 8.390625 C8.125 10.265625 8.125 10.265625 6.125 12.265625 C1.78856399 12.58100216 -0.20153229 12.71460347 -3.875 10.265625 C-4.23828125 8.390625 -4.23828125 8.390625 -4.1875 6.265625 C-4.18169922 5.21375 -4.18169922 5.21375 -4.17578125 4.140625 C-3.74246757 1.43944882 -2.71585695 0.3847464 0 0 Z " fill="#E16001" transform="translate(69.875,9.734375)"/>
<path d="M0 0 C0.70125 0.00515625 1.4025 0.0103125 2.125 0.015625 C2.82625 0.01046875 3.5275 0.0053125 4.25 0 C6.125 0.265625 6.125 0.265625 8.125 2.265625 C8.39491906 4.95401885 8.21237357 7.55704436 8.125 10.265625 C4.73035554 12.35463697 2.07658471 12.60924106 -1.875 12.265625 C-3.875 10.265625 -3.875 10.265625 -4.140625 8.390625 C-4.13546875 7.689375 -4.1303125 6.988125 -4.125 6.265625 C-4.13015625 5.564375 -4.1353125 4.863125 -4.140625 4.140625 C-3.75603481 1.4258707 -2.7147543 0.38459019 0 0 Z " fill="#E16001" transform="translate(21.875,9.734375)"/>
<path d="M0 0 C4.20960706 1.40320235 5.47355955 4.45028136 7.6875 8.0625 C8.10322266 8.72572266 8.51894531 9.38894531 8.94726562 10.07226562 C9.97240654 11.71013444 10.98720268 13.35446977 12 15 C10.625 17 10.625 17 9 19 C8.34 19 7.68 19 7 19 C5.85498047 17.53125 5.85498047 17.53125 4.6171875 15.5 C4.17246094 14.778125 3.72773438 14.05625 3.26953125 13.3125 C2.80933594 12.549375 2.34914063 11.78625 1.875 11 C1.17310547 9.8553125 1.17310547 9.8553125 0.45703125 8.6875 C-0.7018143 6.79550727 -1.85376747 4.89965148 -3 3 C-2.01 2.01 -1.02 1.02 0 0 Z " fill="#65707B" transform="translate(28,20)"/>
<path d="M0 0 C2.475 0.99 2.475 0.99 5 2 C1.88708633 7.83152493 -1.19627262 13.58700334 -5 19 C-6.32 18.34 -7.64 17.68 -9 17 C-7.68925635 12.53817564 -5.92933989 9.00381243 -3.375 5.125 C-2.74335937 4.15820312 -2.11171875 3.19140625 -1.4609375 2.1953125 C-0.73777344 1.10863281 -0.73777344 1.10863281 0 0 Z " fill="#65707A" transform="translate(66,20)"/>
<path d="M0 0 C1.051875 0.185625 2.10375 0.37125 3.1875 0.5625 C6.57119882 0.95079331 8.76425888 0.88247485 12 0 C12.36103152 6.3782235 12.36103152 6.3782235 10.875 8.9375 C8.11019567 10.50422245 6.11811483 10.38976435 3 10 C1.125 8.9375 1.125 8.9375 0 7 C-0.1875 3.3125 -0.1875 3.3125 0 0 Z " fill="#D3A225" transform="translate(42,66)"/>
<path d="M0 0 C5.28 0 10.56 0 16 0 C16 1.32 16 2.64 16 4 C10.39 4 4.78 4 -1 4 C-0.67 2.68 -0.34 1.36 0 0 Z " fill="#64707A" transform="translate(62,48)"/>
<path d="M0 0 C5.28 0 10.56 0 16 0 C16.33 1.32 16.66 2.64 17 4 C11.39 4 5.78 4 0 4 C0 2.68 0 1.36 0 0 Z " fill="#65707A" transform="translate(18,48)"/>
<path d="M0 0 C3.875 1.75 3.875 1.75 5 4 C5.16796875 6.0234375 5.16796875 6.0234375 5.1875 8.375 C5.20167969 9.14585938 5.21585938 9.91671875 5.23046875 10.7109375 C4.97801607 13.21834888 4.25193467 14.83261902 3 17 C2.80664062 16.40832031 2.61328125 15.81664062 2.4140625 15.20703125 C2.15367188 14.41683594 1.89328125 13.62664063 1.625 12.8125 C1.35558594 11.99136719 1.08617187 11.17023437 0.80859375 10.32421875 C-0.00274735 7.87561152 -0.00274735 7.87561152 -1.3125 5.125 C-1.539375 4.42375 -1.76625 3.7225 -2 3 C-1.34 2.01 -0.68 1.02 0 0 Z " fill="#B55116" transform="translate(57,37)"/>
</svg>
