<?xml version="1.0" encoding="UTF-8"?>
<svg version="1.1" xmlns="http://www.w3.org/2000/svg" width="500" height="500">
<path d="M0 0 C3.49251676 1.35999175 6.5942574 2.89169064 9.8125 4.8125 C16.88726555 8.69372957 24.25800186 10.90747802 32 13 C33.15604736 13.31517578 33.15604736 13.31517578 34.33544922 13.63671875 C44.95498614 16.4760521 55.63054514 18.55750766 66.5 20.1875 C67.52971924 20.34226807 68.55943848 20.49703613 69.62036133 20.65649414 C88.37026971 23.31974289 107.21254651 24.52538099 126.125 25.25 C127.27588104 25.29491577 128.42676208 25.33983154 129.61251831 25.3861084 C147.29749122 26.04422443 164.88161093 25.98873274 182.5625 25.25 C183.59884583 25.20734009 184.63519165 25.16468018 185.70294189 25.12072754 C213.91261051 23.90766279 241.92244635 21.0893678 269.4375 14.5625 C271.20383789 14.14834839 271.20383789 14.14834839 273.00585938 13.72583008 C282.95749601 11.26698197 292.32050028 7.73971695 301.25 2.6875 C302.16265625 2.17574219 303.0753125 1.66398438 304.015625 1.13671875 C304.67046875 0.76160156 305.3253125 0.38648438 306 0 C307.98647061 1.98647061 307.21102 5.89036828 307.23828125 8.609375 C307.2480751 9.39499313 307.25786896 10.18061127 307.26795959 10.99003601 C307.71418252 56.34122372 300.6004216 107.20487419 273 145 C272.34 145 271.68 145 271 145 C270.7421875 145.71542969 270.484375 146.43085938 270.21875 147.16796875 C268.92615235 150.17160111 267.3722291 152.63505372 265.5 155.3125 C264.8915625 156.19550781 264.283125 157.07851563 263.65625 157.98828125 C263.1096875 158.65214844 262.563125 159.31601562 262 160 C261.34 160 260.68 160 260 160 C259.73832031 160.58910156 259.47664063 161.17820312 259.20703125 161.78515625 C257.9357725 164.11785434 256.59769469 165.60354368 254.6875 167.4375 C254.06101562 168.04464844 253.43453125 168.65179688 252.7890625 169.27734375 C251.90347656 170.13005859 251.90347656 170.13005859 251 171 C250.195625 171.825 249.39125 172.65 248.5625 173.5 C247.716875 174.325 246.87125 175.15 246 176 C245.45085937 176.556875 244.90171875 177.11375 244.3359375 177.6875 C235.65583506 185.97467599 224.73710272 188.67303441 213.1875 190.6875 C212.04603516 190.89536133 210.90457031 191.10322266 209.72851562 191.31738281 C168.39916023 198.73035133 104.85163528 204.93459055 67.60009766 181.84130859 C63.05231927 178.62071286 59.2436716 174.74097569 55.375 170.75 C54.56160156 169.9353125 53.74820313 169.120625 52.91015625 168.28125 C47 162.28169643 47 162.28169643 47 160 C46.34 160 45.68 160 45 160 C43.7824707 158.61401367 43.7824707 158.61401367 42.42578125 156.66796875 C41.92651123 155.95753418 41.42724121 155.24709961 40.9128418 154.51513672 C40.384729 153.7470166 39.85661621 152.97889648 39.3125 152.1875 C38.50002808 151.01598389 38.50002808 151.01598389 37.67114258 149.82080078 C36.10535792 147.55304804 34.55128009 145.27768977 33 143 C32.30648437 141.99324219 31.61296875 140.98648438 30.8984375 139.94921875 C16.69798556 118.58369859 8.59302984 92.22020791 3.75 67.25 C3.59893799 66.47229248 3.44787598 65.69458496 3.29223633 64.89331055 C0.49313058 49.5179632 -0.27503519 34.53408265 -0.125 18.9375 C-0.11493457 17.08789556 -0.10581511 15.23828571 -0.09765625 13.38867188 C-0.07596071 8.92564403 -0.04163437 4.46288453 0 0 Z " fill="#FCFCFA" transform="translate(91,223)"/>
<path d="M0 0 C0.495 1.485 0.495 1.485 1 3 C1.66 3 2.32 3 3 3 C3 3.66 3 4.32 3 5 C3.66 5 4.32 5 5 5 C5 5.66 5 6.32 5 7 C5.66 7 6.32 7 7 7 C7 7.66 7 8.32 7 9 C7.66 9 8.32 9 9 9 C9 9.66 9 10.32 9 11 C9.53625 11.226875 10.0725 11.45375 10.625 11.6875 C13.82460161 13.45570089 16.29037223 15.53670203 19 18 C19 18.66 19 19.32 19 20 C17.90300781 20.40992188 16.80601562 20.81984375 15.67578125 21.2421875 C14.22134314 21.78642886 12.76691667 22.33070133 11.3125 22.875 C10.59126953 23.14441406 9.87003906 23.41382813 9.12695312 23.69140625 C7.71962563 24.21835079 6.31341918 24.74830078 4.90844727 25.28149414 C3.29453324 25.88911202 1.67159336 26.47267379 0.046875 27.05078125 C-2.22779111 27.83674037 -2.22779111 27.83674037 -3.0625 30.3125 C-2.97524716 34.06437223 -1.54580289 35.30195641 1 38 C14.36515023 45.30628213 30.88672855 47.13581282 45.75 49.1875 C46.93779053 49.35451416 48.12558105 49.52152832 49.34936523 49.69360352 C67.16719826 52.01881337 85.10430228 52.16749866 103.04833984 52.13037109 C106.12993252 52.12499139 109.21138031 52.13036899 112.29296875 52.13671875 C129.86602749 52.14452121 147.19400976 51.51342638 164.625 49.1875 C165.62066483 49.05586456 165.62066483 49.05586456 166.63644409 48.92156982 C191.54251162 46.38453365 191.54251162 46.38453365 213 35 C213.16677282 31.41656024 213.16677282 31.41656024 213 28 C212.27683594 27.71125 211.55367188 27.4225 210.80859375 27.125 C209.04931724 26.42031066 207.29129437 25.71247442 205.53515625 25 C201.06181599 23.19087661 196.60475667 21.45413368 192 20 C193.5885342 15.71095765 196.43127368 13.67654474 200 11 C200.66 11 201.32 11 202 11 C202 10.34 202 9.68 202 9 C202.66 9 203.32 9 204 9 C204 8.34 204 7.68 204 7 C204.66 7 205.32 7 206 7 C206 6.34 206 5.68 206 5 C206.66 5 207.32 5 208 5 C208.309375 4.360625 208.61875 3.72125 208.9375 3.0625 C210 1 210 1 211 0 C239.29460769 -0.21500462 286.04100623 6.43608548 307.953125 25.71875 C310.45801739 28.38751385 311.85781377 30.61293749 313.125 34.0625 C312.95397933 38.08148569 311.56176699 39.95357438 309 43 C306.75 44.375 306.75 44.375 305 45 C305 45.66 305 46.32 305 47 C284.59220408 58.49734981 261.84625559 63.75315495 239 68 C237.80584473 68.22284668 236.61168945 68.44569336 235.38134766 68.67529297 C165.41821368 81.43763385 90.63201354 83.1841531 20 75 C18.85208984 74.86867676 17.70417969 74.73735352 16.52148438 74.60205078 C-14.38312154 70.99598214 -45.45442969 66.46871528 -74.875 56 C-76.18476807 55.53823364 -76.18476807 55.53823364 -77.52099609 55.06713867 C-86.48265506 51.73479699 -95.80434911 47.39297452 -101 39 C-102.125 35.9375 -102.125 35.9375 -102 33 C-96.79395112 22.13520235 -84.52172091 18.00974093 -73.87646484 14.25 C-51.31195332 6.58714577 -24.01751548 -0.88589196 0 0 Z " fill="#F6F6F5" transform="translate(139,390)"/>
<path d="M0 0 C4.50909925 0.01706453 9.01766576 0.00692972 13.52674675 -0.01032925 C121.85435221 -0.36078325 121.85435221 -0.36078325 155.54443359 24.39111328 C155.54443359 25.05111328 155.54443359 25.71111328 155.54443359 26.39111328 C156.20443359 26.39111328 156.86443359 26.39111328 157.54443359 26.39111328 C159.29725885 29.07190485 159.55754496 30.25999967 159.23193359 33.51611328 C158.54443359 36.39111328 158.54443359 36.39111328 157.54443359 38.39111328 C156.88443359 38.39111328 156.22443359 38.39111328 155.54443359 38.39111328 C155.54443359 39.05111328 155.54443359 39.71111328 155.54443359 40.39111328 C108.89150017 79.12863898 1.69728745 68.29514949 -55.25244141 63.04736328 C-66.70945089 61.88771722 -78.09305726 60.25146151 -89.45556641 58.39111328 C-90.5496582 58.21209473 -91.64375 58.03307617 -92.77099609 57.84863281 C-104.28454503 55.90309643 -115.4302873 53.40033765 -126.45556641 49.51611328 C-127.33325684 49.21286133 -128.21094727 48.90960938 -129.11523438 48.59716797 C-135.73122271 46.11537362 -142.85933812 42.5281032 -146.72509766 36.36816406 C-147.79038714 33.48490396 -147.15827248 31.32970233 -146.45556641 28.39111328 C-146.12556641 27.73111328 -145.79556641 27.07111328 -145.45556641 26.39111328 C-144.79556641 26.39111328 -144.13556641 26.39111328 -143.45556641 26.39111328 C-143.45556641 25.73111328 -143.45556641 25.07111328 -143.45556641 24.39111328 C-107.38958053 -3.37074041 -43.36569452 -0.16556208 0 0 Z " fill="#F1F0EE" transform="translate(238.45556640625,178.60888671875)"/>
<path d="M0 0 C-1 2 -1 2 -3.23828125 2.9296875 C-12.56408454 5.79734239 -21.98304654 7.73812696 -31.56591797 9.53051758 C-33.15715147 9.83743252 -34.74509097 10.16209517 -36.32861328 10.5065918 C-43.66578975 12.08895761 -51.03449272 12.84407796 -58.5 13.5625 C-59.73492187 13.68818359 -60.96984375 13.81386719 -62.2421875 13.94335938 C-83.73394352 16.0593003 -105.17401396 16.24274386 -126.75 16.25 C-127.55144691 16.25058914 -128.35289383 16.25117828 -129.17862701 16.25178528 C-216.39802533 16.29702765 -216.39802533 16.29702765 -255 2 C-255 1.34 -255 0.68 -255 0 C-187.24064333 -27.81863496 -68.31127549 -27.73762374 0 0 Z " fill="#553318" transform="translate(372,217)"/>
<path d="M0 0 C9.44023704 9.44023704 13.11376402 20.39343502 13.25 33.5625 C13.06418513 48.90937912 8.05502405 61.45995624 0.75 74.75 C-0.05244141 76.21566406 -0.05244141 76.21566406 -0.87109375 77.7109375 C-1.32613281 78.38382812 -1.78117187 79.05671875 -2.25 79.75 C-2.91 79.75 -3.57 79.75 -4.25 79.75 C-4.5284375 80.74 -4.5284375 80.74 -4.8125 81.75 C-6.85808774 86.01905268 -9.82184643 89.49163706 -13.25 92.75 C-13.91 92.75 -14.57 92.75 -15.25 92.75 C-15.25 93.41 -15.25 94.07 -15.25 94.75 C-17.35849215 96.58555789 -19.47064702 98.304013 -21.6875 100 C-22.33565674 100.49870605 -22.98381348 100.99741211 -23.65161133 101.51123047 C-25.51132431 102.93285917 -27.37963294 104.34243708 -29.25 105.75 C-29.99765625 106.32492187 -30.7453125 106.89984375 -31.515625 107.4921875 C-46.14564317 118.01866399 -67.09749615 127.16443536 -85.25 127.75 C-84.49703386 122.26840648 -81.83663819 118.34353232 -78.98828125 113.69140625 C-77.62822347 111.39000511 -76.63219399 109.26315917 -75.625 106.8125 C-72.39257232 102.64436957 -69.00582073 101.86966686 -64.09765625 100.1875 C-53.28966149 96.35067597 -42.88157763 90.25816188 -34.25 82.75 C-33.08348516 81.8123111 -31.91683343 80.87479243 -30.75 79.9375 C-28.21713257 77.9997925 -28.21713257 77.9997925 -27.25 75.75 C-26.59 75.75 -25.93 75.75 -25.25 75.75 C-25.00894531 75.22277344 -24.76789063 74.69554687 -24.51953125 74.15234375 C-23.21065962 71.6755559 -21.69782146 69.39708269 -20.12695312 67.08032227 C-12.26110515 55.38972186 -6.03246289 42.09505197 -8.62890625 27.640625 C-9.90987707 20.8062214 -9.90987707 20.8062214 -13.9375 15.625 C-14.700625 15.33625 -15.46375 15.0475 -16.25 14.75 C-17.301875 14.21375 -18.35375 13.6775 -19.4375 13.125 C-27.10719263 9.95637699 -33.88302146 11.96854312 -41.453125 14.58203125 C-44.23913052 15.74546093 -46.66838135 17.19657774 -49.25 18.75 C-49.91 18.75 -50.57 18.75 -51.25 18.75 C-51.39500644 15.14625537 -51.48396763 11.54325758 -51.5625 7.9375 C-51.60439453 6.91333984 -51.64628906 5.88917969 -51.68945312 4.83398438 C-51.73498966 2.05625594 -51.72685737 -0.51234591 -51.25 -3.25 C-48.90625 -5.37890625 -48.90625 -5.37890625 -46.25 -6.25 C-45.321875 -6.62125 -44.39375 -6.9925 -43.4375 -7.375 C-27.92497032 -11.63334148 -13.18631855 -9.12898976 0 0 Z " fill="#F0F0ED" transform="translate(452.25,243.25)"/>
<path d="M0 0 C1.76390579 -0.00163147 1.76390579 -0.00163147 3.56344604 -0.0032959 C24.62328765 -0.00108792 45.65378374 0.41194519 66.62255859 2.48974609 C68.70469606 2.6953705 70.78773978 2.88915469 72.87109375 3.08203125 C82.96816644 4.04658322 82.96816644 4.04658322 85.25 5.1875 C86.80944897 5.34608803 88.3730879 5.46428579 89.9375 5.5625 C103.30886491 6.71160167 124.25425916 9.19175916 134.25 19.1875 C134.9375 21.75 134.9375 21.75 134.25 24.1875 C132.375 26.5 132.375 26.5 130.25 28.1875 C129.59 28.1875 128.93 28.1875 128.25 28.1875 C127.92 29.1775 127.59 30.1675 127.25 31.1875 C126.77046875 30.58035156 126.2909375 29.97320312 125.796875 29.34765625 C122.30807148 26.38859436 118.89092762 25.67083278 114.5 24.625 C113.65018555 24.41375488 112.80037109 24.20250977 111.92480469 23.98486328 C44.9931803 7.65855116 -37.58277867 5.54545843 -104.75 22.1875 C-106.02157959 22.49953369 -106.02157959 22.49953369 -107.31884766 22.81787109 C-117.130893 25.13037908 -117.130893 25.13037908 -126.6484375 28.37890625 C-128.75 29.1875 -128.75 29.1875 -130.9375 28.5 C-132.75 27.1875 -132.75 27.1875 -134.75 24.1875 C-134.875 21.5 -134.875 21.5 -134.75 19.1875 C-134.09 19.1875 -133.43 19.1875 -132.75 19.1875 C-132.75 18.5275 -132.75 17.8675 -132.75 17.1875 C-131.17032193 16.51221777 -129.58608097 15.84760306 -128 15.1875 C-127.11828125 14.81625 -126.2365625 14.445 -125.328125 14.0625 C-122.75 13.1875 -122.75 13.1875 -118.75 13.1875 C-118.75 12.5275 -118.75 11.8675 -118.75 11.1875 C-79.58765203 1.62274744 -40.13441933 0.01990679 0 0 Z " fill="#E2E1E0" transform="translate(244.75,188.8125)"/>
<path d="M0 0 C7.09452103 5.65471643 10.90073445 12.03545917 12.046875 21.0625 C12.35545596 28.96691987 11.74730117 35.15801026 6.57421875 41.33984375 C1.14918823 46.93440647 -3.24550354 49.63016611 -11.17578125 49.77734375 C-17.58539507 49.67740175 -21.74358588 48.78675292 -26.42578125 44.33984375 C-30.17389578 40.21691777 -31.06767007 36.88838753 -30.8203125 31.46484375 C-30.22063974 28.23492313 -28.85151443 26.48835028 -26.42578125 24.33984375 C-25.43578125 24.33984375 -24.44578125 24.33984375 -23.42578125 24.33984375 C-23.22082031 25.02691406 -23.01585937 25.71398437 -22.8046875 26.421875 C-22.53527344 27.32292969 -22.26585937 28.22398438 -21.98828125 29.15234375 C-21.72144531 30.04566406 -21.45460937 30.93898437 -21.1796875 31.859375 C-20.62190252 33.6945743 -20.0323355 35.52018101 -19.42578125 37.33984375 C-14.84326416 39.35615127 -8.09651183 38.89675394 -3.42578125 37.33984375 C-3.42578125 36.67984375 -3.42578125 36.01984375 -3.42578125 35.33984375 C-2.76578125 35.33984375 -2.10578125 35.33984375 -1.42578125 35.33984375 C1.33113517 27.06909448 1.43602888 21.21793642 -2.42578125 13.33984375 C-2.92078125 11.85484375 -2.92078125 11.85484375 -3.42578125 10.33984375 C-4.08578125 10.33984375 -4.74578125 10.33984375 -5.42578125 10.33984375 C-5.42578125 9.67984375 -5.42578125 9.01984375 -5.42578125 8.33984375 C-13.56914262 5.02728997 -21.65083687 3.69779226 -30.26953125 6.1484375 C-36.65310809 8.92683164 -40.50098638 13.03696476 -43.42578125 19.33984375 C-46.29874757 30.68983415 -43.69353175 41.90870782 -38.05078125 52.02734375 C-35.44610686 56.12704809 -32.44101474 59.85842879 -29.40844727 63.64306641 C-19.13100603 76.48817958 -10.1906968 89.23508926 -11.42578125 106.33984375 C-12.7017797 115.68155718 -15.74598207 123.74396774 -21.42578125 131.33984375 C-22.08578125 131.33984375 -22.74578125 131.33984375 -23.42578125 131.33984375 C-23.13411458 129.88151042 -22.84244792 128.42317708 -22.55078125 126.96484375 C-22.37160156 126.04832031 -22.19242188 125.13179687 -22.0078125 124.1875 C-21.64179427 122.3967128 -21.24733208 120.61127104 -20.8125 118.8359375 C-19.29902196 112.42167341 -19.33884232 106.83336687 -20.42578125 100.33984375 C-20.5546875 99.53933594 -20.68359375 98.73882812 -20.81640625 97.9140625 C-23.38708777 86.69487386 -32.47665303 77.41983004 -39.546875 68.70703125 C-50.49514761 54.91357345 -57.05780186 41.30565735 -55.67578125 23.31347656 C-54.59942274 14.81613068 -50.96330173 7.68074752 -44.61328125 1.9921875 C-31.59186212 -7.84363445 -13.73115247 -9.39732657 0 0 Z " fill="#E2E2E0" transform="translate(266.42578125,36.66015625)"/>
<path d="M0 0 C0.99 0.33 1.98 0.66 3 1 C3.6130031 8.96904025 3.6130031 8.96904025 1.625 12.3125 C-5.83062859 17.10540409 -14.3395447 18.97800667 -22.9375 20.625 C-23.92556641 20.82867187 -24.91363281 21.03234375 -25.93164062 21.2421875 C-42.56356774 24.51610628 -59.1324627 25.35125651 -76.05004883 25.31567383 C-79.16718822 25.31252055 -82.28336786 25.33606226 -85.40039062 25.36132812 C-108.48571016 25.43358744 -140.49535803 25.25298413 -160.625 12.3125 C-162.786845 8.67666978 -162.26417071 5.11300533 -162 1 C-156.70124308 2.05181867 -151.40647248 3.12021957 -146.1171875 4.21875 C-119.24768426 9.76219992 -93.39783019 11.3701821 -66 11 C-64.78691162 10.98912354 -64.78691162 10.98912354 -63.54931641 10.97802734 C-52.85760672 10.83508357 -42.36463009 9.29681254 -31.8125 7.6875 C-31.14062653 7.58676178 -30.46875305 7.48602356 -29.77651978 7.38223267 C-13.98041458 5.85233268 -13.98041458 5.85233268 0 0 Z " fill="#E9E9E8" transform="translate(324,410)"/>
<path d="M0 0 C5.0931453 3.07118847 9.30010427 7.9029207 11.5 13.4375 C12.38792921 20.5035472 12.44900052 26.99876476 8.046875 32.84765625 C4.4391615 36.55558402 0.70136199 38.62386155 -4.5625 38.875 C-10.21356606 38.24710377 -13.18810015 36.99106561 -16.875 32.625 C-19.02015429 28.41719736 -19.14750091 25.6154576 -17.8125 21.125 C-16.5 19.4375 -16.5 19.4375 -13.875 18.6875 C-12.699375 18.56375 -12.699375 18.56375 -11.5 18.4375 C-10.015 22.8925 -10.015 22.8925 -8.5 27.4375 C-4.21841247 27.8978464 -4.21841247 27.8978464 -0.625 25.875 C0.92760304 22.51102674 0.88630676 20.10741425 0.5 16.4375 C-1.15139305 12.8988006 -2.21605229 11.62679847 -5.5 9.4375 C-10.80405693 8.72141068 -15.23291112 8.81507037 -20.0625 11.1875 C-24.35778611 15.15237949 -25.11798787 18.61181509 -25.5 24.4375 C-24.58318759 35.21513926 -17.74783114 44.28898489 -11.91796875 53.02734375 C-8.61315526 58.64461627 -8.88496357 65.08766445 -9.5 71.4375 C-10.90332671 75.41127663 -13.27993791 78.70044722 -16.5 81.4375 C-17.98433982 76.98448055 -17.41193355 72.63850016 -17.2421875 67.98046875 C-17.52538755 64.08861357 -18.65215475 61.82844115 -20.5 58.4375 C-20.5 57.4475 -20.5 56.4575 -20.5 55.4375 C-21.16 55.4375 -21.82 55.4375 -22.5 55.4375 C-31.26014321 44.64797998 -37.40322661 33.31396906 -36.31640625 19.0234375 C-35.11768497 11.83110984 -31.18610014 6.92705623 -25.9375 2.0625 C-18.60207545 -2.82778304 -8.11485768 -3.65717957 0 0 Z " fill="#E1E1DF" transform="translate(309.5,88.5625)"/>
<path d="M0 0 C1.99705088 1.22041998 3.71790252 2.51763197 5.4765625 4.05859375 C6.4046875 4.80109375 7.3328125 5.54359375 8.2890625 6.30859375 C12.38074131 11.45241855 13.81841138 16.69761431 13.4140625 23.24609375 C12.62413713 28.5616332 10.90828062 32.02587151 6.71484375 35.53125 C1.84009838 38.96942994 -1.60863724 39.91719379 -7.5234375 39.05859375 C-10.8359375 37.24609375 -10.8359375 37.24609375 -13.5234375 35.05859375 C-14.1215625 34.62546875 -14.7196875 34.19234375 -15.3359375 33.74609375 C-17.30929486 30.94184907 -17.40712685 28.43160261 -17.5234375 25.05859375 C-16.3359375 22.18359375 -16.3359375 22.18359375 -14.5234375 20.05859375 C-12.41015625 19.42578125 -12.41015625 19.42578125 -10.5234375 19.05859375 C-9.85188817 20.34772862 -9.18634891 21.63999579 -8.5234375 22.93359375 C-8.1521875 23.65289062 -7.7809375 24.3721875 -7.3984375 25.11328125 C-6.5234375 27.05859375 -6.5234375 27.05859375 -6.5234375 29.05859375 C-1.52233488 28.201166 -1.52233488 28.201166 1.9765625 24.87109375 C2.62693064 21.21277298 2.45656351 18.65193079 1.4765625 15.05859375 C-3.03776204 10.66002112 -6.17365637 9.7850421 -12.265625 9.82421875 C-15.24367737 10.13335913 -17.12808219 11.31651716 -19.5234375 13.05859375 C-20.1834375 13.05859375 -20.8434375 13.05859375 -21.5234375 13.05859375 C-24.15380656 19.1413222 -24.61293558 25.77842274 -22.9765625 32.20703125 C-20.47131069 38.37562298 -16.55754799 43.98166851 -12.96533203 49.56323242 C-12.53720215 50.22943604 -12.10907227 50.89563965 -11.66796875 51.58203125 C-11.27971924 52.17935059 -10.89146973 52.77666992 -10.49145508 53.39208984 C-7.13589241 59.16890467 -7.91487007 66.61847909 -8.5234375 73.05859375 C-9.69302689 76.21513036 -11.07651514 78.72884795 -13.5234375 81.05859375 C-15.0084375 81.55359375 -15.0084375 81.55359375 -16.5234375 82.05859375 C-16.3584375 81.43984375 -16.1934375 80.82109375 -16.0234375 80.18359375 C-14.28257598 69.30320925 -16.72328733 61.90392069 -23.08203125 52.8359375 C-24.06891845 51.54657578 -25.06604485 50.26497397 -26.07421875 48.9921875 C-33.45246612 39.14789518 -35.82178962 29.29839873 -34.5234375 17.05859375 C-33.25097906 13.42743186 -31.63754505 10.267507 -29.5234375 7.05859375 C-28.8634375 7.05859375 -28.2034375 7.05859375 -27.5234375 7.05859375 C-27.5234375 6.39859375 -27.5234375 5.73859375 -27.5234375 5.05859375 C-25.87890625 3.8046875 -25.87890625 3.8046875 -23.7109375 2.49609375 C-23.00324219 2.06167969 -22.29554688 1.62726563 -21.56640625 1.1796875 C-15.42650134 -2.18962934 -6.51854387 -2.43184067 0 0 Z " fill="#E2E2E2" transform="translate(202.5234375,87.94140625)"/>
<path d="M0 0 C0.33 0 0.66 0 1 0 C1.33 6.27 1.66 12.54 2 19 C3.32 19.33 4.64 19.66 6 20 C6.99 19.34 7.98 18.68 9 18 C9.99 18 10.98 18 12 18 C12.35191406 18.66644531 12.70382812 19.33289063 13.06640625 20.01953125 C16.30937488 26.07363717 19.77003821 31.87606169 23.58203125 37.58984375 C26.88684474 43.20711627 26.61503643 49.65016445 26 56 C24.59667329 59.97377663 22.22006209 63.26294722 19 66 C17.51566018 61.54698055 18.08806645 57.20100016 18.2578125 52.54296875 C17.97461245 48.65111357 16.84784525 46.39094115 15 43 C15 42.01 15 41.02 15 40 C14.34 40 13.68 40 13 40 C4.70373866 29.78182483 -0.91586672 19.44029178 -1 6 C-0.5625 2.3125 -0.5625 2.3125 0 0 Z " fill="#D6D6D5" transform="translate(274,104)"/>
<path d="M0 0 C0.66 0.33 1.32 0.66 2 1 C2.86140345 13.72962881 2.86140345 13.72962881 -0.5 18.3125 C-1.325 19.199375 -2.15 20.08625 -3 21 C-3.66 20.67 -4.32 20.34 -5 20 C-4.505 11.09 -4.505 11.09 -4 2 C-2.68 1.34 -1.36 0.68 0 0 Z " fill="#CECECD" transform="translate(297,149)"/>
<path d="M0 0 C3.95022592 3.95022592 3.34484443 8.92521605 3.39379883 14.22119141 C3.29737108 19.29562478 2.32734699 22.59989697 -0.61328125 26.6796875 C-2 28 -2 28 -5 29 C-4.690625 28.175 -4.38125 27.35 -4.0625 26.5 C-3.22164194 23.73011464 -2.78077777 21.52080291 -2.5 18.6875 C-2.335 17.470625 -2.17 16.25375 -2 15 C-1.34 14.67 -0.68 14.34 0 14 C0.66 14.33 1.32 14.66 2 15 C1.855625 14.25234375 1.71125 13.5046875 1.5625 12.734375 C1.376875 11.74953125 1.19125 10.7646875 1 9.75 C0.814375 8.77546875 0.62875 7.8009375 0.4375 6.796875 C0 4 0 4 0 0 Z " fill="#BCBCBA" transform="translate(191,141)"/>
<path d="M0 0 C-0.99 0.33 -1.98 0.66 -3 1 C-3.67156616 2.93618425 -3.67156616 2.93618425 -4 5 C-4.33 5.66 -4.66 6.32 -5 7 C-7.64 6.34 -10.28 5.68 -13 5 C-13 4.34 -13 3.68 -13 3 C-11.21189234 2.30329584 -9.41937948 1.61788811 -7.625 0.9375 C-6.62726563 0.55464844 -5.62953125 0.17179688 -4.6015625 -0.22265625 C-2 -1 -2 -1 0 0 Z " fill="#5B3F25" transform="translate(130,214)"/>
<path d="M0 0 C0.33 1.32 0.66 2.64 1 4 C1.99 4 2.98 4 4 4 C3.46968862 8.5076467 1.74778884 11.41954788 -1 15 C-1.66 15 -2.32 15 -3 15 C-2 10 -1 5 0 0 Z " fill="#8E8D8C" transform="translate(246,153)"/>
<path d="M0 0 C1.27230469 0.00902344 2.54460937 0.01804687 3.85546875 0.02734375 C5.31919922 0.04474609 5.31919922 0.04474609 6.8125 0.0625 C6.8125 0.3925 6.8125 0.7225 6.8125 1.0625 C5.49185547 1.15337891 5.49185547 1.15337891 4.14453125 1.24609375 C2.40236328 1.37177734 2.40236328 1.37177734 0.625 1.5 C-0.52355469 1.58121094 -1.67210937 1.66242188 -2.85546875 1.74609375 C-5.70348171 2.01653812 -8.39960482 2.43771747 -11.1875 3.0625 C-11.5175 4.0525 -11.8475 5.0425 -12.1875 6.0625 C-12.8475 6.0625 -13.5075 6.0625 -14.1875 6.0625 C-14.5175 6.7225 -14.8475 7.3825 -15.1875 8.0625 C-16.1775 8.0625 -17.1675 8.0625 -18.1875 8.0625 C-18.1875 7.4025 -18.1875 6.7425 -18.1875 6.0625 C-16.54296875 4.80859375 -16.54296875 4.80859375 -14.375 3.5 C-13.66730469 3.06558594 -12.95960938 2.63117188 -12.23046875 2.18359375 C-8.07732958 -0.09547115 -4.66395143 -0.04278855 0 0 Z " fill="#9F9E9F" transform="translate(193.1875,86.9375)"/>
<path d="M0 0 C0.66 0.33 1.32 0.66 2 1 C3.093125 1 4.18625 1 5.3125 1 C8.42707668 1 10.99414378 1.27130758 14 2 C14 2.33 14 2.66 14 3 C8.72 3.66 3.44 4.32 -2 5 C-1 1 -1 1 0 0 Z " fill="#DCD4CD" transform="translate(154,203)"/>
<path d="M0 0 C1.43859375 0.11408203 1.43859375 0.11408203 2.90625 0.23046875 C5.5 0.8125 5.5 0.8125 8.5 3.8125 C2.89 3.1525 -2.72 2.4925 -8.5 1.8125 C-5.03148 -0.49984667 -4.02682952 -0.37345596 0 0 Z " fill="#D1C5BB" transform="translate(328.5,204.1875)"/>
<path d="M0 0 C0.33 0 0.66 0 1 0 C1 3.63 1 7.26 1 11 C1.99 11 2.98 11 4 11 C3.67 12.32 3.34 13.64 3 15 C1.68 15 0.36 15 -1 15 C-1.10251672 9.87416389 -1.03590199 5.05002222 0 0 Z " fill="#C0BFBB" transform="translate(248,142)"/>
<path d="M0 0 C-0.598125 0.28875 -1.19625 0.5775 -1.8125 0.875 C-4.19327792 2.04742026 -4.19327792 2.04742026 -7 4 C-9.48046875 3.9765625 -9.48046875 3.9765625 -12.1875 3.625 C-13.53908203 3.45871094 -13.53908203 3.45871094 -14.91796875 3.2890625 C-15.60503906 3.19367188 -16.29210937 3.09828125 -17 3 C-17 2.67 -17 2.34 -17 2 C-11.23918159 0.7017874 -5.91260345 -0.25706972 0 0 Z " fill="#ADACA5" transform="translate(108,395)"/>
<path d="M0 0 C0.66 0.33 1.32 0.66 2 1 C-0.41556126 4.19199167 -2.68003538 6.74716687 -6 9 C-6.66 8.34 -7.32 7.68 -8 7 C-5.36 4.69 -2.72 2.38 0 0 Z " fill="#B4B4B3" transform="translate(47,412)"/>
<path d="M0 0 C0.66 0.33 1.32 0.66 2 1 C-0.31 3.64 -2.62 6.28 -5 9 C-4.01 9.33 -3.02 9.66 -2 10 C-4.97 9.505 -4.97 9.505 -8 9 C-6.4169423 4.7257442 -3.49431596 2.73468206 0 0 Z " fill="#9F9E9E" transform="translate(339,401)"/>
<path d="M0 0 C5.28 0.99 10.56 1.98 16 3 C16 3.33 16 3.66 16 4 C13.89611431 4.05402274 11.79183286 4.09280256 9.6875 4.125 C7.92986328 4.15980469 7.92986328 4.15980469 6.13671875 4.1953125 C3 4 3 4 0 2 C0 1.34 0 0.68 0 0 Z " fill="#5D412D" transform="translate(338,208)"/>
<path d="M0 0 C3.3 0 6.6 0 10 0 C9.01 1.485 9.01 1.485 8 3 C6.0546875 3.29296875 6.0546875 3.29296875 3.875 3.1875 C2.59625 3.125625 1.3175 3.06375 0 3 C0 2.01 0 1.02 0 0 Z " fill="#563926" transform="translate(288,203)"/>
<path d="M0 0 C2.97 0.99 5.94 1.98 9 3 C8.67 3.66 8.34 4.32 8 5 C5.9375 5.625 5.9375 5.625 4 6 C4 5.01 4 4.02 4 3 C2.68 3 1.36 3 0 3 C0 2.01 0 1.02 0 0 Z " fill="#5D432E" transform="translate(363,214)"/>
<path d="M0 0 C-0.66 1.65 -1.32 3.3 -2 5 C-3.65 4.67 -5.3 4.34 -7 4 C-7 3.34 -7 2.68 -7 2 C-4.35261084 0.5393715 -3.10551666 0 0 0 Z " fill="#65503C" transform="translate(124,215)"/>
<path d="M0 0 C0.66 0.33 1.32 0.66 2 1 C-2.296875 5.00390625 -2.296875 5.00390625 -4 6 C-6.203125 5.65234375 -6.203125 5.65234375 -8 5 C-6.71475739 4.13619741 -5.42157581 3.28419631 -4.125 2.4375 C-3.04605469 1.72400391 -3.04605469 1.72400391 -1.9453125 0.99609375 C-1.30335938 0.66738281 -0.66140625 0.33867187 0 0 Z " fill="#A4A4A3" transform="translate(410,332)"/>
<path d="M0 0 C1.62418745 -0.08090971 3.24951745 -0.13914995 4.875 -0.1875 C5.77992187 -0.22230469 6.68484375 -0.25710938 7.6171875 -0.29296875 C8.79667969 -0.14794922 8.79667969 -0.14794922 10 0 C10.66 0.99 11.32 1.98 12 3 C10.56163249 2.88541307 9.12429034 2.75790884 7.6875 2.625 C6.88699219 2.55539062 6.08648437 2.48578125 5.26171875 2.4140625 C3 2 3 2 0 0 Z " fill="#9D9A99" transform="translate(88,452)"/>
</svg>
