<?xml version="1.0" encoding="UTF-8"?>
<svg version="1.1" xmlns="http://www.w3.org/2000/svg" width="1808" height="1536">
<path d="M0 0 C1.04539431 -0.00350607 2.09078862 -0.00701215 3.16786155 -0.01062447 C6.66400294 -0.01991386 10.15997686 -0.01502143 13.65612507 -0.01015663 C16.19081883 -0.01389412 18.72551144 -0.01849603 21.26020223 -0.02388728 C26.76774847 -0.03356692 32.27524442 -0.03703391 37.78279781 -0.03497505 C45.97306013 -0.03192083 54.16328365 -0.04025836 62.35353842 -0.0507243 C77.8339933 -0.07005373 93.31443491 -0.07569213 108.79490044 -0.07683842 C120.75105834 -0.07775795 132.70721106 -0.08187696 144.66336727 -0.08823967 C148.10652345 -0.09003479 151.54967963 -0.09181442 154.99283582 -0.09358943 C156.2768513 -0.09425257 156.2768513 -0.09425257 157.5868065 -0.09492911 C181.66086987 -0.10723542 205.73493145 -0.11513045 229.80899811 -0.11424255 C230.71641873 -0.1142114 231.62383935 -0.11418024 232.55875757 -0.11414814 C237.15780768 -0.11398193 241.75685778 -0.11378384 246.35590788 -0.11357872 C247.26927442 -0.11353883 248.18264095 -0.11349894 249.12368526 -0.11345784 C250.97073462 -0.11337697 252.81778398 -0.11329337 254.66483335 -0.11320706 C283.39928094 -0.11198166 312.13368133 -0.12699352 340.86811543 -0.15435219 C373.1610311 -0.18508639 405.45391575 -0.20228388 437.74684697 -0.20042574 C441.19157493 -0.20027649 444.63630289 -0.20017907 448.08103085 -0.20011711 C448.92919204 -0.2000938 449.77735324 -0.20007049 450.65121629 -0.20004648 C464.28837407 -0.19998498 477.9254908 -0.21274568 491.56263639 -0.22998164 C505.27303313 -0.24695155 518.98336994 -0.24890133 532.69377138 -0.235763 C540.83357768 -0.22838296 548.97320168 -0.23200341 557.11298859 -0.25164768 C563.19853973 -0.26509047 569.28387706 -0.25751126 575.36943082 -0.24190123 C577.82564214 -0.23882929 580.28187328 -0.24247096 582.73806121 -0.25362138 C603.41949995 -0.34126828 619.54776983 1.15335644 635.39423847 15.81976891 C647.60427247 28.61308478 652.32524953 44.23705427 652.33553964 61.70218372 C652.33731465 62.41109789 652.33908966 63.12001205 652.34091846 63.85040846 C652.34563785 66.21858703 652.34329047 68.58670415 652.34095955 70.95488548 C652.34291376 72.68014486 652.34530309 74.40540379 652.34808752 76.13066202 C652.35448194 80.88372472 652.35464959 85.63677049 652.35381011 90.38983667 C652.35397972 95.5563794 652.35988707 100.72291609 652.36505097 105.8894558 C652.37437666 116.1421079 652.37829896 126.3947557 652.38056994 136.64741152 C652.38353205 148.92582562 652.39222946 161.204234 652.40098422 173.4826451 C652.42182824 203.1594903 652.43230146 232.83633538 652.44111383 262.51318594 C652.4440485 272.34147498 652.44741848 282.1697638 652.45108104 291.9980526 C652.45133933 292.69157037 652.45159762 293.38508815 652.45186374 294.09962161 C652.45290999 296.90545995 652.45395841 299.71129829 652.45500956 302.51713663 C652.47297328 350.51089752 652.48835186 398.50465876 652.49576859 446.49842253 C652.49635256 450.26749601 652.49694982 454.03656948 652.49754621 457.80564296 C652.49766433 458.55329995 652.49778245 459.30095694 652.49790415 460.0712702 C652.49910152 467.64596271 652.50031028 475.22065522 652.50153668 482.79534772 C652.50178191 484.3140841 652.50202577 485.83282048 652.50226825 487.35155686 C652.51005765 536.12584378 652.532441 584.90010663 652.56494468 633.67438303 C652.58829411 668.72381551 652.60984376 703.77324321 652.61695099 738.82268333 C652.61709801 739.54366687 652.61724503 740.26465041 652.61739651 741.00748194 C652.62058151 756.8358209 652.62263228 772.66415982 652.62362405 788.49249906 C652.62403878 794.86136482 652.62459368 801.23023056 652.62518597 807.5990963 C652.62527697 808.64462627 652.62527697 808.64462627 652.62536981 809.71127806 C652.62738475 832.15199181 652.6416154 854.59267714 652.66213097 877.03338098 C652.68329867 900.26982121 652.69006184 923.50621968 652.68025718 946.74267179 C652.67503759 960.13675482 652.6809415 973.53072499 652.70279185 986.9247918 C652.71628709 995.87304674 652.71523417 1004.82122389 652.70238989 1013.76947958 C652.69548493 1018.86711474 652.69485235 1023.96453391 652.71194998 1029.06214988 C652.72739967 1033.70633516 652.72418434 1038.35013168 652.7065397 1042.99430572 C652.70340878 1044.6574785 652.70687382 1046.32068137 652.71803145 1047.98381967 C652.8027174 1061.49503597 651.77107918 1075.4827662 643.76923847 1086.88226891 C642.65742207 1088.51035484 642.65742207 1088.51035484 641.52314472 1090.17133141 C631.63930671 1103.33867041 620.30905535 1111.02496667 604.13183677 1113.85010396 C599.6271751 1114.47713941 595.19308777 1114.53277559 590.65129167 1114.51026857 C589.13738833 1114.51484821 589.13738833 1114.51484821 587.59290109 1114.51952037 C584.21899462 1114.52729926 580.84526839 1114.52089675 577.47136116 1114.51453781 C575.014387 1114.51723183 572.55741367 1114.52080002 570.1004419 1114.52516228 C564.74586236 1114.53264894 559.39133464 1114.53393084 554.03675536 1114.52975039 C546.02067962 1114.52352644 538.00463942 1114.52883352 529.98856625 1114.53634781 C516.32561444 1114.54881243 502.66267531 1114.55176045 488.99971867 1114.54951286 C475.15406672 1114.54726391 461.30842553 1114.54933231 447.46277523 1114.55665779 C446.15090077 1114.55734675 446.15090077 1114.55734675 444.8125238 1114.55804963 C441.25045999 1114.55993291 437.68839621 1114.56184428 434.12633244 1114.56379201 C396.96673815 1114.584081 359.80714988 1114.59020398 322.64755068 1114.59137623 C318.64774496 1114.59150572 314.64793924 1114.5916416 310.64813352 1114.59178305 C309.65557759 1114.59181706 308.66302166 1114.59185106 307.64038827 1114.5918861 C285.64657593 1114.59270298 263.65276474 1114.59708268 241.658953 1114.60209474 C232.60302427 1114.60415144 223.54709552 1114.6061315 214.49116677 1114.60812724 C213.49056916 1114.60834842 212.48997154 1114.60856959 211.45905279 1114.60879747 C154.11898111 1114.62144585 96.77891019 1114.62969568 39.43883705 1114.62878036 C37.29292022 1114.62874881 35.14700339 1114.62871734 33.00108656 1114.62868595 C23.31241204 1114.62853918 13.62373752 1114.62836284 3.93506301 1114.62817818 C-0.38537963 1114.62809593 -4.70582226 1114.62801564 -9.0262649 1114.62793555 C-11.18872424 1114.62789476 -13.35118357 1114.62785272 -15.51364291 1114.62780943 C-83.89746668 1114.62644885 -152.28126974 1114.64108504 -220.6650877 1114.66889 C-237.89527251 1114.675892 -255.12545734 1114.6828309 -272.35564232 1114.68941879 C-273.41656338 1114.68982454 -274.47748443 1114.69023029 -275.57055462 1114.69064833 C-308.26713663 1114.70307755 -340.96371693 1114.7106093 -373.66030121 1114.71313477 C-374.68678706 1114.71321467 -375.71327291 1114.71329457 -376.77086439 1114.71337689 C-399.30429717 1114.71508341 -421.83772984 1114.71560584 -444.37116268 1114.71503614 C-452.43394883 1114.71484317 -460.49673498 1114.71473908 -468.55952113 1114.71467868 C-470.56534656 1114.71466285 -472.57117199 1114.71464244 -474.57699743 1114.71461743 C-506.54101391 1114.71426475 -538.50501268 1114.72566213 -570.46902408 1114.74292506 C-602.66123722 1114.76022288 -634.85342582 1114.76460919 -667.04564165 1114.75140242 C-671.49452538 1114.74957784 -675.94340916 1114.74789128 -680.39229298 1114.74628639 C-681.70043795 1114.74580613 -681.70043795 1114.74580613 -683.03501009 1114.74531617 C-696.84096056 1114.7406111 -710.64686857 1114.74932312 -724.45281106 1114.76362877 C-738.03002631 1114.77741641 -751.60717886 1114.7769153 -765.18439273 1114.76124449 C-773.14268524 1114.75248513 -781.10079305 1114.75461655 -789.05907023 1114.77297806 C-794.97093147 1114.78539135 -800.88264364 1114.77688444 -806.7944987 1114.76031146 C-809.16861012 1114.75687223 -811.5427432 1114.76011454 -813.91683256 1114.77091388 C-834.00816302 1114.85617605 -852.26006201 1113.56710212 -867.60576153 1098.94476891 C-885.8814439 1079.34715653 -886.09760248 1057.09745618 -886.0650053 1031.76932335 C-886.06929866 1029.41144031 -886.07446412 1027.05355873 -886.08041996 1024.69567931 C-886.09277564 1018.92363796 -886.09602851 1013.15164282 -886.09535615 1007.37958949 C-886.09508397 1000.4552752 -886.10644816 993.53099193 -886.11821106 986.60668936 C-886.13963849 973.81519411 -886.15202875 961.02370535 -886.1593523 948.2321949 C-886.16668 935.53480089 -886.17856588 922.83742339 -886.1962595 910.14003944 C-886.19736324 909.34744223 -886.19846698 908.55484501 -886.19960417 907.73822969 C-886.20524191 903.71105528 -886.21096959 899.683881 -886.21673822 895.65670677 C-886.2575001 867.13131491 -886.28980262 838.60591939 -886.31645489 810.08051109 C-886.3180681 808.35702152 -886.31968154 806.63353194 -886.32129519 804.91004236 C-886.32209434 804.05620446 -886.32289349 803.20236656 -886.32371685 802.32265479 C-886.32775895 798.00514415 -886.33180734 793.68763353 -886.33586407 789.37012291 C-886.33666726 788.51443565 -886.33747046 787.6587484 -886.338298 786.77713122 C-886.35691438 766.99511751 -886.37821209 747.21310699 -886.40043926 727.43109703 C-886.4013872 726.585693 -886.40233514 725.74028897 -886.40331181 724.86926664 C-886.42506635 705.48695957 -886.44798237 686.10465426 -886.47297096 666.72235107 C-886.47402681 665.90241944 -886.47508266 665.08248781 -886.47617051 664.23770976 C-886.48569021 656.85162478 -886.49524863 649.46553985 -886.50503754 642.07945521 C-886.52926423 623.79469691 -886.55082467 605.50994256 -886.56530925 587.22517373 C-886.57543854 574.44672289 -886.58867706 561.66827855 -886.60495634 548.88983403 C-886.61361917 542.00423508 -886.6207525 535.11864395 -886.62359715 528.23303986 C-886.63594958 500.99009417 -886.74598286 473.74922262 -887.12327497 446.50874694 C-887.16078443 443.79781193 -887.19454762 441.08687502 -887.22479845 438.37584953 C-887.14502463 415.50132116 -887.14502463 415.50132116 -891.85576153 393.25726891 C-894.02474805 386.84034274 -894.92750597 381.19627338 -894.75029278 374.40961266 C-894.37957522 355.1498073 -894.37957522 355.1498073 -897.17006207 336.13190269 C-902.51580916 312.09897073 -901.21455889 286.52350386 -901.39475918 262.03894615 C-901.41847033 258.91727897 -901.44516519 255.79565121 -901.47285748 252.67401695 C-901.59502296 238.885434 -901.69365226 225.09680165 -901.77515697 211.30792046 C-901.79285239 208.32621003 -901.81122635 205.34450439 -901.82969952 202.36279869 C-901.90001245 190.80661675 -901.94802214 179.2505569 -901.97404003 167.69419289 C-901.98070374 165.27821939 -901.99078641 162.86228246 -902.00181866 160.4463253 C-902.01845483 156.6650126 -902.02455292 152.88382169 -902.02258396 149.10247421 C-902.02367533 147.10769702 -902.03426201 145.11293171 -902.04535198 143.11818504 C-901.99744613 123.84704096 -899.25052764 107.8653309 -885.79326153 93.25726891 C-885.25056622 92.59984703 -884.7078709 91.94242516 -884.14873028 91.26508141 C-874.95173243 80.78748892 -859.20127464 76.41124807 -845.79326153 75.25726891 C-841.48658674 75.11460671 -837.18263157 75.12203212 -832.87390614 75.12977695 C-831.5743771 75.12813312 -830.27484807 75.12648929 -828.93593937 75.12479565 C-825.32852228 75.12036161 -821.72113072 75.12211865 -818.11371293 75.12486895 C-814.18916325 75.12674628 -810.2646188 75.12279313 -806.34007061 75.11955577 C-799.46159019 75.11466446 -792.58311662 75.11340929 -785.70463467 75.11452103 C-775.47604582 75.11613139 -765.24746512 75.11196782 -755.01887793 75.10644055 C-738.86576643 75.09778952 -722.71265601 75.09242771 -706.55954258 75.08923904 C-680.92043386 75.08409702 -655.28133905 75.06863199 -629.64223719 75.04966255 C-624.1860842 75.0456411 -618.72993114 75.0417202 -613.27377808 75.0377962 C-611.64230489 75.03662221 -611.64230489 75.03662221 -609.97787264 75.03542451 C-607.77385833 75.03383894 -605.56984402 75.03225411 -603.36582971 75.03067003 C-601.15367801 75.02907875 -598.94152632 75.0274845 -596.72937462 75.0258873 C-570.64243559 75.0070575 -544.55549562 74.98997049 -518.4685545 74.97430992 C-516.75633626 74.97327654 -516.75633626 74.97327654 -515.00952776 74.97222228 C-477.98050445 74.94995169 -440.95148518 74.93811941 -403.92245624 74.93064336 C-365.85623029 74.92288185 -327.7900319 74.9018373 -289.72382246 74.86510076 C-284.34986278 74.85992699 -278.97590295 74.85491967 -273.60194302 74.85002136 C-272.54429598 74.8490544 -271.48664895 74.84808745 -270.396952 74.84709119 C-253.36481609 74.83193952 -236.33270775 74.83105829 -219.30056695 74.83567849 C-202.18905676 74.84005852 -185.0776032 74.8301734 -167.96610965 74.80559143 C-157.79679436 74.79143417 -147.62761774 74.78847708 -137.45830009 74.80143395 C-130.66722499 74.80899694 -123.87626415 74.80211225 -117.08521072 74.78345244 C-113.21473245 74.77323499 -109.34453269 74.76934012 -105.474059 74.78307768 C-101.30390426 74.79773515 -97.13443516 74.78150836 -92.9642992 74.76228428 C-91.76392751 74.77147384 -90.56355582 74.78066339 -89.32680923 74.79013142 C-80.78917516 74.71252493 -73.36334724 73.17616767 -66.41826153 67.96430016 C-63.38117926 64.83230906 -61.62495729 61.86442539 -59.79326153 57.94476891 C-59.45423809 57.2461776 -59.11521465 56.54758629 -58.76591778 55.82782555 C-56.49355077 51.04245645 -54.58003293 46.17837266 -52.79326153 41.19476891 C-47.04565613 25.31839391 -39.51813315 10.80173722 -23.57060528 3.15961266 C-15.77475585 0.62678394 -8.15330208 -0.03505361 0 0 Z " fill="#E2AE49" transform="translate(1034.7932615280151,210.74273109436035)"/>
<path d="M0 0 C0.91996444 -0.00705869 1.83992887 -0.01411738 2.78777102 -0.02138997 C3.80274623 -0.01386334 4.81772144 -0.00633671 5.86345347 0.00141801 C6.9443445 -0.00241625 8.02523554 -0.00625051 9.13888085 -0.01020096 C12.80521287 -0.0194782 16.47116606 -0.0071474 20.13748588 0.00487001 C22.78611179 0.00265336 25.43471182 -0.00075482 28.08333169 -0.00561948 C33.88304652 -0.01384636 39.68267313 -0.01082371 45.48238359 -0.00063605 C54.16471739 0.01455564 62.84698781 0.01249066 71.52933008 0.00696422 C86.32379367 -0.00194843 101.11822183 0.00340301 115.912681 0.01639707 C130.91304563 0.02951409 145.91339194 0.03611683 160.91376247 0.03469045 C162.33291895 0.03456134 162.33291895 0.03456134 163.78074525 0.03442961 C168.60461236 0.03396051 173.42847945 0.03338466 178.25234654 0.0327711 C213.20219383 0.02854435 248.15202481 0.03885586 283.1018671 0.05682332 C317.72282052 0.07457925 352.34376697 0.08614629 386.96472492 0.08938177 C388.5763853 0.08953662 388.5763853 0.08953662 390.22060447 0.0896946 C400.03368759 0.09063417 409.84677072 0.09149725 419.65985385 0.09226852 C444.05614871 0.09418693 468.45244341 0.09706503 492.84873809 0.10059411 C494.51533048 0.10083404 494.51533048 0.10083404 496.21559139 0.10107882 C550.28733368 0.10894698 604.35907135 0.12787113 658.43081035 0.14769514 C677.199365 0.15457 695.96791967 0.16139604 714.73647441 0.16801984 C716.48247076 0.16863611 716.48247076 0.16863611 718.26373976 0.16926483 C772.35586617 0.1882904 826.44799337 0.19947169 880.54012224 0.20862423 C884.05100523 0.20921842 887.56188821 0.209816 891.07277119 0.21041427 C914.3392056 0.21437354 937.60564002 0.2181975 960.87207446 0.22193084 C1007.168122 0.22936072 1053.46416938 0.23758578 1099.76021669 0.24635698 C1101.96504966 0.2467747 1104.16988264 0.24719187 1106.37471561 0.24760847 C1205.65529765 0.26637227 1304.9358763 0.29438751 1404.21645488 0.32640607 C1405.61115164 0.32685578 1405.61115164 0.32685578 1407.0340241 0.32731458 C1453.53794978 0.34231654 1500.04187528 0.35786603 1546.54580059 0.37401349 C1546.54580059 14.23401349 1546.54580059 28.09401349 1546.54580059 42.37401349 C1034.05580059 42.37401349 521.56580059 42.37401349 -6.45419941 42.37401349 C-7.47312389 38.29831558 -7.6332801 34.59395397 -7.65732441 30.43260724 C-7.66302449 29.66852048 -7.66872456 28.90443372 -7.67459736 28.11719282 C-7.68402143 26.50595498 -7.69057101 24.89469809 -7.69443379 23.28343732 C-7.70417953 20.81654673 -7.73524209 18.3504758 -7.76669941 15.88377912 C-7.77322617 14.31672676 -7.77847793 12.74966847 -7.78232441 11.18260724 C-7.79467122 10.44505704 -7.80701802 9.70750684 -7.81973897 8.94760663 C-7.79745329 3.84168253 -7.79745329 3.84168253 -6.21030905 1.67926495 C-3.98403326 0.02455635 -2.75869962 -0.00066716 0 0 Z " fill="#767673" transform="translate(140.45419941470027,380.6259865052998)"/>
<path d="M0 0 C0.99 0 1.98 0 3 0 C3.06855966 80.90587555 3.13215736 161.81175461 3.16937256 242.71765137 C3.16992479 243.9151291 3.17047702 245.11260684 3.17104598 246.34637178 C3.18301767 272.37093641 3.19409839 298.39550135 3.20426132 324.42006674 C3.20925065 337.18255107 3.21443687 349.94503532 3.21972656 362.70751953 C3.2202496 363.97753852 3.22077263 365.24755751 3.22131152 366.55606192 C3.23835618 407.71927702 3.26840089 448.88247016 3.30518888 490.04567196 C3.34292539 532.34704037 3.3675432 574.64839663 3.37565996 616.94978159 C3.37681258 622.92487986 3.37811512 628.89997808 3.37950897 634.87507629 C3.37977866 636.05105858 3.38004836 637.22704088 3.38032622 638.43865899 C3.38505265 657.36691928 3.40360372 676.29514198 3.42732814 695.22338694 C3.45088539 714.25375579 3.45986983 733.28408738 3.45400551 752.31447029 C3.45096378 763.62004514 3.45906899 774.92548358 3.48319017 786.23103379 C3.49821033 793.7874263 3.49864015 801.34372967 3.48732725 808.90012838 C3.48129948 813.20295176 3.48150054 817.50551752 3.49953273 821.80831307 C3.51584811 825.73140656 3.51335727 829.65404399 3.4965599 833.57713134 C3.49372893 834.97928391 3.49744417 836.38147111 3.50894098 837.7835794 C3.60651212 850.50072615 2.03720523 863.9764598 -5.4375 874.625 C-6.17871094 875.71039062 -6.91992188 876.79578125 -7.68359375 877.9140625 C-17.56743176 891.08140151 -28.89768312 898.76769777 -45.0749017 901.59283506 C-49.57956337 902.2198705 -54.0136507 902.27550668 -58.5554468 902.25299966 C-60.06935014 902.25757931 -60.06935014 902.25757931 -61.61383738 902.26225147 C-64.98774385 902.27003035 -68.36147008 902.26362784 -71.73537731 902.25726891 C-74.19235147 902.25996292 -76.6493248 902.26353111 -79.10629657 902.26789337 C-84.46087612 902.27538003 -89.81540383 902.27666193 -95.16998311 902.27248149 C-103.18605885 902.26625754 -111.20209905 902.27156461 -119.21817222 902.2790789 C-132.88112403 902.29154353 -146.54406316 902.29449155 -160.20701981 902.29224396 C-174.05267175 902.289995 -187.89831294 902.2920634 -201.74396324 902.29938889 C-203.0558377 902.30007784 -203.0558377 902.30007784 -204.39421468 902.30078072 C-207.95627848 902.302664 -211.51834226 902.30457538 -215.08040603 902.3065231 C-252.24000032 902.32681209 -289.39958859 902.33293507 -326.55918779 902.33410732 C-330.55899351 902.33423682 -334.55879923 902.3343727 -338.55860496 902.33451414 C-339.55116089 902.33454815 -340.54371682 902.33458216 -341.5663502 902.3346172 C-363.56016254 902.33543407 -385.55397374 902.33981377 -407.54778547 902.34482583 C-416.6037142 902.34688254 -425.65964295 902.3488626 -434.7155717 902.35085833 C-435.71616931 902.35107951 -436.71676693 902.35130069 -437.74768568 902.35152857 C-495.08775736 902.36417695 -552.42782828 902.37242677 -609.76790142 902.37151146 C-611.91381825 902.3714799 -614.05973508 902.37144843 -616.20565191 902.37141704 C-625.89432643 902.37127028 -635.58300095 902.37109394 -645.27167547 902.37090927 C-649.5921181 902.37082703 -653.91256074 902.37074673 -658.23300337 902.37066665 C-660.39546271 902.37062586 -662.55792205 902.37058382 -664.72038138 902.37054053 C-733.10420515 902.36917995 -801.48800821 902.38381614 -869.87182617 902.41162109 C-887.10201098 902.41862309 -904.33219581 902.425562 -921.56238079 902.43214989 C-922.62330185 902.43255564 -923.68422291 902.43296138 -924.77729309 902.43337943 C-957.4738751 902.44580864 -990.17045541 902.45334039 -1022.86703968 902.45586586 C-1023.89352553 902.45594576 -1024.92001138 902.45602566 -1025.97760286 902.45610799 C-1048.51103564 902.45781451 -1071.04446832 902.45833694 -1093.57790115 902.45776723 C-1101.6406873 902.45757426 -1109.70347345 902.45747018 -1117.7662596 902.45740977 C-1119.77208503 902.45739395 -1121.77791047 902.45737354 -1123.7837359 902.45734853 C-1155.74775239 902.45699585 -1187.71175115 902.46839322 -1219.67576255 902.48565616 C-1251.86797569 902.50295398 -1284.06016429 902.50734028 -1316.25238012 902.49413352 C-1320.70126385 902.49230893 -1325.15014763 902.49062237 -1329.59903145 902.48901749 C-1330.47112809 902.48869731 -1331.34322474 902.48837714 -1332.24174856 902.48804726 C-1346.04769904 902.48334219 -1359.85360704 902.49205421 -1373.65954954 902.50635986 C-1387.23676478 902.5201475 -1400.81391733 902.5196464 -1414.3911312 902.50397559 C-1422.34942371 902.49521622 -1430.30753152 902.49734765 -1438.26580871 902.51570916 C-1444.17766994 902.52812244 -1450.08938211 902.51961553 -1456.00123717 902.50304256 C-1458.3753486 902.49960332 -1460.74948167 902.50284563 -1463.12357103 902.51364497 C-1483.21490149 902.59890714 -1501.46680048 901.30983321 -1516.8125 886.6875 C-1535.08818237 867.08988762 -1535.30434096 844.84018727 -1535.27174377 819.51205444 C-1535.27603714 817.15417141 -1535.28120259 814.79628983 -1535.28715843 812.4384104 C-1535.29951411 806.66636905 -1535.30276698 800.89437391 -1535.30209462 795.12232058 C-1535.30182245 788.19800629 -1535.31318664 781.27372303 -1535.32494953 774.34942046 C-1535.34637696 761.5579252 -1535.35876722 748.76643645 -1535.36609077 735.97492599 C-1535.37341847 723.27753199 -1535.38530435 710.58015448 -1535.40299797 697.88277054 C-1535.40410171 697.09017332 -1535.40520546 696.2975761 -1535.40634265 695.48096079 C-1535.41198039 691.45378637 -1535.41770806 687.42661209 -1535.42347669 683.39943786 C-1535.46423857 654.874046 -1535.49654109 626.34865048 -1535.52319336 597.82324219 C-1535.52480658 596.09975261 -1535.52642001 594.37626303 -1535.52803367 592.65277345 C-1535.52883281 591.79893556 -1535.52963196 590.94509766 -1535.53045533 590.06538588 C-1535.53449742 585.74787525 -1535.53854581 581.43036462 -1535.54260254 577.112854 C-1535.54340574 576.25716675 -1535.54420893 575.40147949 -1535.54503647 574.51986232 C-1535.56365285 554.7378486 -1535.58495057 534.95583809 -1535.60717773 515.17382812 C-1535.60812567 514.3284241 -1535.60907361 513.48302007 -1535.61005028 512.61199774 C-1535.63180482 493.22969066 -1535.65472084 473.84738536 -1535.67970943 454.46508217 C-1535.68076529 453.64515054 -1535.68182114 452.8252189 -1535.68290898 451.98044086 C-1535.69242868 444.59435587 -1535.7019871 437.20827094 -1535.71177601 429.82218631 C-1535.73600271 411.53742801 -1535.75756314 393.25267365 -1535.77204772 374.96790482 C-1535.78217701 362.18945398 -1535.79541553 349.41100965 -1535.81169481 336.63256513 C-1535.82035765 329.74696618 -1535.82749098 322.86137504 -1535.83033562 315.97577095 C-1535.8429096 288.00136912 -1535.98607268 260.0328138 -1536.41698667 232.06176424 C-1536.44794717 230.03042307 -1536.4775973 227.99906632 -1536.50697637 225.96770172 C-1536.5631517 222.18746814 -1536.62531978 218.40738497 -1536.68969631 214.6272831 C-1536.70586194 213.52352955 -1536.72202757 212.41977601 -1536.73868307 211.28257538 C-1536.87037165 204.15453498 -1537.32371749 197.09687557 -1538 190 C-1537.01 190 -1536.02 190 -1535 190 C-1528.60510602 199.59234096 -1531.83228538 219.63141957 -1531.81054688 230.82983398 C-1531.80255086 233.13510721 -1531.79413765 235.44037901 -1531.78534698 237.74564934 C-1531.76244139 244.07118552 -1531.74547259 250.39672566 -1531.72950745 256.72228265 C-1531.71346541 262.89712849 -1531.69203078 269.07195697 -1531.67121875 275.2467882 C-1531.62848014 287.97467541 -1531.59024568 300.70257251 -1531.55444336 313.43048096 C-1531.51874156 326.11518209 -1531.48065969 338.79987284 -1531.43969727 351.48455811 C-1531.43713844 352.2774637 -1531.43457961 353.0703693 -1531.43194324 353.88730234 C-1531.4215253 357.1136503 -1531.41109511 360.33999821 -1531.40064922 363.56634608 C-1531.17259412 434.04129682 -1530.98265808 504.51634511 -1530.80482107 574.9914384 C-1530.76608437 590.3396057 -1530.72654763 605.68777076 -1530.68640137 621.03593445 C-1530.6811075 623.06241057 -1530.67581445 625.0888867 -1530.67052221 627.11536282 C-1530.63893717 639.20709986 -1530.63893717 639.20709986 -1530.60723782 651.29883659 C-1530.54710293 674.21027639 -1530.4899208 697.12171848 -1530.43895614 720.03318063 C-1530.40318416 736.10249793 -1530.3641133 752.17180422 -1530.3216486 768.24110526 C-1530.2963374 777.87005426 -1530.27397728 787.49900048 -1530.2556105 797.12796528 C-1530.24304214 803.58002815 -1530.22692454 810.03207567 -1530.20786855 816.48412263 C-1530.19707271 820.17712794 -1530.18792675 823.87011857 -1530.18311405 827.56313694 C-1530.17790808 831.53365984 -1530.1651184 835.50413644 -1530.15148926 839.47463989 C-1530.15119343 840.64280485 -1530.1508976 841.8109698 -1530.1505928 843.0145337 C-1530.1457349 844.06325978 -1530.140877 845.11198587 -1530.13587189 846.19249153 C-1530.13375592 847.10366112 -1530.13163995 848.01483071 -1530.12945986 848.95361149 C-1530.22676993 850.9935807 -1530.22676993 850.9935807 -1529 852 C-1528.91909029 853.62418745 -1528.86085005 855.24951745 -1528.8125 856.875 C-1527.80145026 868.88315998 -1519.21003455 879.18205261 -1510.75 887.25 C-1494.71887939 900.75695757 -1472.31910501 899.44237633 -1452.54943085 899.38311005 C-1450.1002511 899.38685214 -1447.65107307 899.39190465 -1445.2018984 899.39813888 C-1439.88615362 899.40866966 -1434.57052748 899.41000084 -1429.2547856 899.40304345 C-1421.29694646 899.3926814 -1413.3391854 899.39973664 -1405.38134951 899.41002351 C-1391.81483798 899.42705062 -1378.24835689 899.42989564 -1364.68183708 899.42490768 C-1350.9407104 899.41990119 -1337.19960738 899.42140784 -1323.45848274 899.43078995 C-1322.15484266 899.43167267 -1322.15484266 899.43167267 -1320.82486641 899.43257322 C-1317.28497055 899.43498986 -1313.74507472 899.43744995 -1310.20517893 899.43996587 C-1274.30024871 899.46545163 -1238.39533353 899.47145409 -1202.49039549 899.46955473 C-1197.53188448 899.46929509 -1192.57337346 899.46905642 -1187.61486244 899.46883965 C-1186.62995054 899.46879561 -1185.64503864 899.46875157 -1184.63028092 899.46870619 C-1162.79204182 899.46784236 -1140.95380507 899.47263612 -1119.11556688 899.47852156 C-1114.12743904 899.47986253 -1109.13931119 899.48116242 -1104.15118334 899.4824672 C-1102.14921612 899.48299173 -1100.14724891 899.48351632 -1098.14528169 899.48404097 C-1097.15293576 899.48430075 -1096.16058984 899.48456053 -1095.13817282 899.48482819 C-1093.13091457 899.48535437 -1091.12365631 899.48588205 -1089.11639806 899.4864112 C-1032.17132076 899.50140516 -975.22624533 899.51017843 -918.28116608 899.50545502 C-917.22699205 899.50536915 -916.17281803 899.50528329 -915.08669934 899.50519482 C-903.33180157 899.50423544 -891.57690381 899.50319723 -879.82200605 899.50213593 C-876.60474421 899.50184641 -873.38748238 899.50155693 -870.17022054 899.50126753 C-868.02361336 899.50107353 -865.87700618 899.50087803 -863.730399 899.50068104 C-795.83669031 899.49446395 -727.94301727 899.50933109 -660.04931641 899.54199219 C-642.93915566 899.55021549 -625.8289949 899.55836548 -608.71883392 899.56609344 C-607.66527834 899.56656964 -606.61172276 899.56704584 -605.52624125 899.56753646 C-573.05467737 899.5821228 -540.58311646 899.59056796 -508.11154938 899.592659 C-507.09208384 899.59272531 -506.0726183 899.59279163 -505.02225986 899.59285996 C-482.64270714 899.59425401 -460.26315464 899.59414276 -437.88360194 899.59264987 C-429.87594824 899.59212776 -421.86829453 899.59171059 -413.86064083 899.5913417 C-411.86857159 899.59124848 -409.87650235 899.59114934 -407.88443312 899.59104425 C-376.1485774 899.58941947 -344.41274823 899.60224015 -312.6768994 899.62220203 C-280.71619415 899.64218733 -248.75552849 899.64590729 -216.79482107 899.62757629 C-212.37705321 899.62504254 -207.95928527 899.62268007 -203.54151726 899.62041855 C-202.67553284 899.61996817 -201.80954843 899.61951779 -200.91732206 899.61905376 C-187.21416472 899.61237955 -173.51107326 899.62245557 -159.8079271 899.63952993 C-146.32846311 899.65597292 -132.84909885 899.65452004 -119.36963921 899.63413157 C-111.47109868 899.62271552 -103.57284794 899.62486472 -95.67432952 899.64734673 C-89.80317017 899.66252046 -83.93224634 899.65147846 -78.0610989 899.63042386 C-75.70612997 899.62598544 -73.35112633 899.62986145 -70.99619118 899.64323221 C-53.59756664 899.73530157 -36.50421245 898.76304654 -22 888 C-21.4328125 887.60039063 -20.865625 887.20078125 -20.28125 886.7890625 C-15.37615755 883.0601912 -10.95735253 877.8720576 -9 872 C-8.34 872 -7.68 872 -7 872 C-6.87625 871.071875 -6.7525 870.14375 -6.625 869.1875 C-6 866 -6 866 -4 863 C0.22158263 852.17979969 -0.85244073 839.55430357 -0.8613348 828.11188698 C-0.85888076 826.65789345 -0.85599495 825.2039006 -0.85272202 823.74990869 C-0.84501647 819.77810925 -0.84338318 815.80632768 -0.8427946 811.83452168 C-0.84105522 807.50468567 -0.83356418 803.17485886 -0.82681805 798.84502828 C-0.81579197 791.2645702 -0.80840141 783.68411541 -0.80341911 776.10365105 C-0.79599407 764.8318577 -0.78290657 753.56007584 -0.76867336 742.28828928 C-0.74488803 723.32540146 -0.72567327 704.3625116 -0.70907402 685.39961624 C-0.6926265 666.62717025 -0.67414102 647.85472808 -0.65294075 629.08228683 C-0.65096434 627.33069486 -0.65096434 627.33069486 -0.648948 625.5437172 C-0.64224581 619.61328472 -0.63550727 613.68285229 -0.62875474 607.75241987 C-0.58100665 565.7600805 -0.53781733 523.76773756 -0.49731445 481.77539062 C-0.45795891 440.9833958 -0.41653501 400.19140392 -0.37231445 359.39941406 C-0.37095192 358.1417663 -0.36958939 356.88411853 -0.36818558 355.58836022 C-0.35450006 342.95840872 -0.34077254 330.32845727 -0.32701423 317.69850585 C-0.29898858 291.9704214 -0.2712433 266.24233665 -0.2436676 240.51425171 C-0.2417653 238.73989405 -0.2417653 238.73989405 -0.23982458 236.92969079 C-0.15518552 157.953132 -0.07708223 78.97656648 0 0 Z " fill="#FED565" transform="translate(1684,423)"/>
<path d="M0 0 C1.04539431 -0.00350607 2.09078862 -0.00701215 3.16786155 -0.01062447 C6.66400294 -0.01991386 10.15997686 -0.01502143 13.65612507 -0.01015663 C16.19081883 -0.01389412 18.72551144 -0.01849603 21.26020223 -0.02388728 C26.76774847 -0.03356692 32.27524442 -0.03703391 37.78279781 -0.03497505 C45.97306013 -0.03192083 54.16328365 -0.04025836 62.35353842 -0.0507243 C77.8339933 -0.07005373 93.31443491 -0.07569213 108.79490044 -0.07683842 C120.75105834 -0.07775795 132.70721106 -0.08187696 144.66336727 -0.08823967 C148.10652345 -0.09003479 151.54967963 -0.09181442 154.99283582 -0.09358943 C156.2768513 -0.09425257 156.2768513 -0.09425257 157.5868065 -0.09492911 C181.66086987 -0.10723542 205.73493145 -0.11513045 229.80899811 -0.11424255 C230.71641873 -0.1142114 231.62383935 -0.11418024 232.55875757 -0.11414814 C237.15780768 -0.11398193 241.75685778 -0.11378384 246.35590788 -0.11357872 C247.26927442 -0.11353883 248.18264095 -0.11349894 249.12368526 -0.11345784 C250.97073462 -0.11337697 252.81778398 -0.11329337 254.66483335 -0.11320706 C283.39928094 -0.11198166 312.13368133 -0.12699352 340.86811543 -0.15435219 C373.1610311 -0.18508639 405.45391575 -0.20228388 437.74684697 -0.20042574 C441.19157493 -0.20027649 444.63630289 -0.20017907 448.08103085 -0.20011711 C448.92919204 -0.2000938 449.77735324 -0.20007049 450.65121629 -0.20004648 C464.28837407 -0.19998498 477.9254908 -0.21274568 491.56263639 -0.22998164 C505.27303313 -0.24695155 518.98336994 -0.24890133 532.69377138 -0.235763 C540.83357768 -0.22838296 548.97320168 -0.23200341 557.11298859 -0.25164768 C563.19853973 -0.26509047 569.28387706 -0.25751126 575.36943082 -0.24190123 C577.82564214 -0.23882929 580.28187328 -0.24247096 582.73806121 -0.25362138 C603.41949995 -0.34126828 619.54776983 1.15335644 635.39423847 15.81976891 C648.90099445 29.97175208 652.38503036 46.79215112 652.32026386 65.81390953 C652.32040989 66.94649193 652.32055592 68.07907433 652.32070637 69.2459774 C652.32001284 72.9685111 652.31224672 76.69099401 652.30439472 80.41351891 C652.30252855 83.00283341 652.30110559 85.59214826 652.300107 88.18146324 C652.29668632 94.28691911 652.28881455 100.3923542 652.27875751 106.49780226 C652.26755108 113.4531129 652.26207454 120.40842444 652.25706208 127.36374187 C652.24663062 141.66159389 652.22905951 155.95943075 652.20673847 170.25726891 C651.21673847 170.58726891 650.22673847 170.91726891 649.20673847 171.25726891 C649.20342833 170.70179689 649.20011818 170.14632488 649.19670773 169.57402039 C649.11500642 155.97328864 649.02264856 142.37266383 648.91921139 128.77207947 C648.86950038 122.19457245 648.82317032 115.61707957 648.78486347 109.03949547 C648.74768967 102.67867253 648.70124758 96.31797568 648.64867496 89.95726204 C648.63029997 87.54391657 648.61513144 85.13054425 648.60339451 82.71715736 C649.34850538 57.479774 649.34850538 57.479774 642.89423847 33.50726891 C642.61128925 32.87562828 642.32834003 32.24398766 642.0368166 31.59320641 C637.20007036 21.25479537 628.0090727 12.46673972 617.45283222 8.12445641 C616.52599628 7.79703453 615.59916035 7.46961266 614.64423847 7.13226891 C613.71482441 6.79969078 612.78541035 6.46711266 611.82783222 6.12445641 C608.02832634 4.86739187 604.76611359 4.1323057 600.75240505 4.12961841 C599.85869288 4.12660244 598.96498071 4.12358647 598.04418635 4.12047911 C597.06446306 4.12224858 596.08473976 4.12401805 595.07532787 4.12584114 C594.02860515 4.12378851 592.98188243 4.12173587 591.90344083 4.11962104 C588.36674156 4.1139291 584.83008095 4.11541099 581.29337788 4.11682701 C578.7438007 4.11424463 576.19422393 4.11123183 573.64464772 4.10782361 C567.35359441 4.10058478 561.06255334 4.09805026 554.77149635 4.09749455 C547.23815507 4.09658148 539.70482165 4.08991561 532.17148375 4.08314773 C513.96214128 4.06707932 495.75279963 4.06118347 477.54345135 4.05639898 C468.93068411 4.05406385 460.31791754 4.05046129 451.70515083 4.0467036 C422.2279682 4.03386728 392.75078594 4.02314822 363.27360058 4.019701 C361.42279729 4.01947937 359.57199399 4.01925759 357.7211907 4.01903565 C355.8658919 4.01881501 354.0105931 4.01859453 352.1552943 4.0183742 C348.43318454 4.01793165 344.71107479 4.01748453 340.98896503 4.01703453 C340.06609654 4.01692514 339.14322805 4.01681575 338.19239385 4.01670304 C308.26639264 4.01307218 278.34041565 3.99715143 248.41442371 3.97384417 C216.78172825 3.94925268 185.14904663 3.93552848 153.51634133 3.93433309 C150.04436723 3.93416163 146.57239314 3.9339462 143.10041904 3.93369865 C142.24550913 3.93364289 141.39059921 3.93358712 140.50978294 3.93352966 C126.74671696 3.9323786 112.98367583 3.92135197 99.22061824 3.9068116 C85.38860291 3.892451 71.55661943 3.88920714 57.72459869 3.89725158 C49.50603776 3.90170993 41.28757963 3.89783904 33.0690322 3.88201307 C26.93350087 3.87112331 20.79807576 3.87589766 14.66254653 3.88678494 C12.1793269 3.88874974 9.69609702 3.88562758 7.2128918 3.87694058 C3.83948106 3.86588533 0.46659206 3.87331083 -2.90680408 3.88533211 C-3.87248039 3.87773691 -4.83815669 3.87014172 -5.83309591 3.86231637 C-16.67269634 3.94579154 -25.6887116 6.93744524 -33.79326153 14.25726891 C-40.93418813 22.4041155 -45.27038422 30.02768182 -47.35576153 40.69476891 C-49.80208027 51.71491436 -56.92936092 65.08599685 -66.09013653 71.98773766 C-66.89966778 72.46855797 -67.70919903 72.94937828 -68.54326153 73.44476891 C-69.74208965 74.17760094 -69.74208965 74.17760094 -70.96513653 74.92523766 C-78.74301681 78.5885763 -86.29274894 78.54212151 -94.73826504 78.510602 C-96.04057162 78.51369927 -97.34287821 78.51679654 -98.68464863 78.51998767 C-102.29989566 78.52831359 -105.91503828 78.52422995 -109.53028582 78.51813641 C-113.46332965 78.51372215 -117.39635487 78.52093555 -121.32939458 78.52669293 C-128.22284579 78.53519716 -135.11626767 78.53634079 -142.00972271 78.53268051 C-152.26067751 78.5272906 -162.51160285 78.53338348 -172.76255434 78.5419693 C-190.00929972 78.55614946 -207.2560369 78.56148388 -224.50278759 78.56222916 C-248.05770976 78.56340735 -271.61260854 78.57860441 -295.16752222 78.59772433 C-306.14030376 78.60662391 -317.11308577 78.61489328 -328.08586788 78.62304592 C-329.18436074 78.62386367 -330.2828536 78.62468143 -331.41463411 78.62552396 C-357.56395305 78.64486457 -383.71327434 78.65840341 -409.86259747 78.67059898 C-411.00680445 78.67113578 -412.15101144 78.67167257 -413.32989137 78.67222563 C-440.02658383 78.68472127 -466.72327658 78.69550167 -493.41997051 78.70429039 C-502.68079409 78.7073604 -511.94161766 78.71045272 -521.20244122 78.71356773 C-522.34542719 78.71394955 -523.48841316 78.71433136 -524.66603507 78.71472474 C-550.76185457 78.7234876 -576.8576691 78.73464458 -602.95348263 78.75469875 C-604.05032443 78.75554142 -605.14716622 78.75638408 -606.27724565 78.75725228 C-617.22761189 78.76573538 -628.1779776 78.77473039 -639.12834282 78.78444405 C-644.51571562 78.78920561 -649.90308853 78.79382108 -655.29046154 78.79833221 C-656.88087928 78.79966404 -656.88087928 78.79966404 -658.50342666 78.80102276 C-675.57235704 78.81495704 -692.64127151 78.81759417 -709.71020672 78.81565256 C-726.86206878 78.81385808 -744.01389885 78.82250089 -761.16575024 78.84196096 C-771.35684243 78.85317256 -781.54785709 78.85595718 -791.73895172 78.84676461 C-798.54708957 78.84143688 -805.35516303 78.84694976 -812.16328781 78.86124135 C-816.04184055 78.8690677 -819.92023717 78.87218377 -823.79878804 78.86202209 C-827.98095479 78.85116969 -832.16273803 78.86354571 -836.34489346 78.87809467 C-837.54321981 78.87124628 -838.74154617 78.86439789 -839.97618544 78.85734197 C-849.9200771 78.92502693 -859.0534359 80.81254378 -868.23076153 84.69476891 C-869.17822247 85.08535484 -870.1256834 85.47594078 -871.10185528 85.87836266 C-873.99738116 87.36184689 -876.27008709 89.21882094 -878.79326153 91.25726891 C-879.45326153 91.25726891 -880.11326153 91.25726891 -880.79326153 91.25726891 C-881.05365215 91.83992516 -881.31404278 92.42258141 -881.58232403 93.02289391 C-882.86914903 95.3972936 -884.31578954 97.04963475 -886.16826153 99.00726891 C-898.64424041 113.11054939 -898.42520255 131.33281942 -898.54326153 149.13226891 C-898.57147547 151.28463608 -898.60141029 153.43698142 -898.63310528 155.58930016 C-898.70631912 160.81187064 -898.75833696 166.03430922 -898.79326153 171.25726891 C-899.78326153 170.92726891 -900.77326153 170.59726891 -901.79326153 170.25726891 C-901.84342487 165.12015705 -901.8793344 159.98319377 -901.90312481 154.84589195 C-901.91306277 153.10530673 -901.92661781 151.36473765 -901.94414043 149.62421227 C-902.15403285 128.20901278 -900.98889897 109.75235877 -885.79326153 93.25726891 C-885.25056622 92.59984703 -884.7078709 91.94242516 -884.14873028 91.26508141 C-874.95173243 80.78748892 -859.20127464 76.41124807 -845.79326153 75.25726891 C-841.48658674 75.11460671 -837.18263157 75.12203212 -832.87390614 75.12977695 C-831.5743771 75.12813312 -830.27484807 75.12648929 -828.93593937 75.12479565 C-825.32852228 75.12036161 -821.72113072 75.12211865 -818.11371293 75.12486895 C-814.18916325 75.12674628 -810.2646188 75.12279313 -806.34007061 75.11955577 C-799.46159019 75.11466446 -792.58311662 75.11340929 -785.70463467 75.11452103 C-775.47604582 75.11613139 -765.24746512 75.11196782 -755.01887793 75.10644055 C-738.86576643 75.09778952 -722.71265601 75.09242771 -706.55954258 75.08923904 C-680.92043386 75.08409702 -655.28133905 75.06863199 -629.64223719 75.04966255 C-624.1860842 75.0456411 -618.72993114 75.0417202 -613.27377808 75.0377962 C-611.64230489 75.03662221 -611.64230489 75.03662221 -609.97787264 75.03542451 C-607.77385833 75.03383894 -605.56984402 75.03225411 -603.36582971 75.03067003 C-601.15367801 75.02907875 -598.94152632 75.0274845 -596.72937462 75.0258873 C-570.64243559 75.0070575 -544.55549562 74.98997049 -518.4685545 74.97430992 C-516.75633626 74.97327654 -516.75633626 74.97327654 -515.00952776 74.97222228 C-477.98050445 74.94995169 -440.95148518 74.93811941 -403.92245624 74.93064336 C-365.85623029 74.92288185 -327.7900319 74.9018373 -289.72382246 74.86510076 C-284.34986278 74.85992699 -278.97590295 74.85491967 -273.60194302 74.85002136 C-272.54429598 74.8490544 -271.48664895 74.84808745 -270.396952 74.84709119 C-253.36481609 74.83193952 -236.33270775 74.83105829 -219.30056695 74.83567849 C-202.18905676 74.84005852 -185.0776032 74.8301734 -167.96610965 74.80559143 C-157.79679436 74.79143417 -147.62761774 74.78847708 -137.45830009 74.80143395 C-130.66722499 74.80899694 -123.87626415 74.80211225 -117.08521072 74.78345244 C-113.21473245 74.77323499 -109.34453269 74.76934012 -105.474059 74.78307768 C-101.30390426 74.79773515 -97.13443516 74.78150836 -92.9642992 74.76228428 C-91.76392751 74.77147384 -90.56355582 74.78066339 -89.32680923 74.79013142 C-80.78917516 74.71252493 -73.36334724 73.17616767 -66.41826153 67.96430016 C-63.38117926 64.83230906 -61.62495729 61.86442539 -59.79326153 57.94476891 C-59.45423809 57.2461776 -59.11521465 56.54758629 -58.76591778 55.82782555 C-56.49355077 51.04245645 -54.58003293 46.17837266 -52.79326153 41.19476891 C-47.04565613 25.31839391 -39.51813315 10.80173722 -23.57060528 3.15961266 C-15.77475585 0.62678394 -8.15330208 -0.03505361 0 0 Z " fill="#FEDF49" transform="translate(1034.7932615280151,210.74273109436035)"/>
<path d="M0 0 C0.66 0 1.32 0 2 0 C2.33 12.87 2.66 25.74 3 39 C513.51 39 1024.02 39 1550 39 C1550.33 39.66 1550.66 40.32 1551 41 C1039.17 41 527.34 41 0 41 C-1.02473846 36.90104617 -1.1442733 33.20560383 -1.1328125 29.0234375 C-1.13376923 28.25697906 -1.13472595 27.49052063 -1.13571167 26.70083618 C-1.13639063 25.08538735 -1.13455618 23.46993575 -1.13037109 21.85449219 C-1.1250041 19.37689126 -1.13033319 16.89947041 -1.13671875 14.421875 C-1.13605821 12.8515621 -1.13477754 11.28124931 -1.1328125 9.7109375 C-1.13483673 8.96822601 -1.13686096 8.22551453 -1.13894653 7.46029663 C-1.1149713 2.2299426 -1.1149713 2.2299426 0 0 Z " fill="#8D7B54" transform="translate(134,382)"/>
<path d="M0 0 C0.99 0 1.98 0 3 0 C3.06855966 80.90587555 3.13215736 161.81175461 3.16937256 242.71765137 C3.16992479 243.9151291 3.17047702 245.11260684 3.17104598 246.34637178 C3.18301767 272.37093641 3.19409839 298.39550135 3.20426132 324.42006674 C3.20925065 337.18255107 3.21443687 349.94503532 3.21972656 362.70751953 C3.2202496 363.97753852 3.22077263 365.24755751 3.22131152 366.55606192 C3.23835618 407.71927702 3.26840089 448.88247016 3.30518888 490.04567196 C3.34292539 532.34704037 3.3675432 574.64839663 3.37565996 616.94978159 C3.37681258 622.92487986 3.37811512 628.89997808 3.37950897 634.87507629 C3.37977866 636.05105858 3.38004836 637.22704088 3.38032622 638.43865899 C3.38505265 657.36691928 3.40360372 676.29514198 3.42732814 695.22338694 C3.45088539 714.25375579 3.45986983 733.28408738 3.45400551 752.31447029 C3.45096378 763.62004514 3.45906899 774.92548358 3.48319017 786.23103379 C3.49821033 793.7874263 3.49864015 801.34372967 3.48732725 808.90012838 C3.48129948 813.20295176 3.48150054 817.50551752 3.49953273 821.80831307 C3.51584811 825.73140656 3.51335727 829.65404399 3.4965599 833.57713134 C3.49372893 834.97928391 3.49744417 836.38147111 3.50894098 837.7835794 C3.60651212 850.50072615 2.03720523 863.9764598 -5.4375 874.625 C-6.17871094 875.71039062 -6.91992188 876.79578125 -7.68359375 877.9140625 C-11.18964058 882.58485001 -14.50523627 886.95288005 -19.3125 890.375 C-20.00988281 890.87773438 -20.70726562 891.38046875 -21.42578125 891.8984375 C-22.20501953 892.44371094 -22.20501953 892.44371094 -23 893 C-23.66 892.67 -24.32 892.34 -25 892 C-21.83306002 888.10918802 -18.55029082 884.55029082 -15 881 C-12.419713 878.1442891 -10.23790457 875.7137137 -9 872 C-8.34 872 -7.68 872 -7 872 C-6.814375 870.6078125 -6.814375 870.6078125 -6.625 869.1875 C-6 866 -6 866 -4 863 C0.22158263 852.17979969 -0.85244073 839.55430357 -0.8613348 828.11188698 C-0.85888076 826.65789345 -0.85599495 825.2039006 -0.85272202 823.74990869 C-0.84501647 819.77810925 -0.84338318 815.80632768 -0.8427946 811.83452168 C-0.84105522 807.50468567 -0.83356418 803.17485886 -0.82681805 798.84502828 C-0.81579197 791.2645702 -0.80840141 783.68411541 -0.80341911 776.10365105 C-0.79599407 764.8318577 -0.78290657 753.56007584 -0.76867336 742.28828928 C-0.74488803 723.32540146 -0.72567327 704.3625116 -0.70907402 685.39961624 C-0.6926265 666.62717025 -0.67414102 647.85472808 -0.65294075 629.08228683 C-0.65162314 627.91455885 -0.65030554 626.74683087 -0.648948 625.5437172 C-0.64224581 619.61328472 -0.63550727 613.68285229 -0.62875474 607.75241987 C-0.58100665 565.7600805 -0.53781733 523.76773756 -0.49731445 481.77539062 C-0.45795891 440.9833958 -0.41653501 400.19140392 -0.37231445 359.39941406 C-0.37095192 358.1417663 -0.36958939 356.88411853 -0.36818558 355.58836022 C-0.35450006 342.95840872 -0.34077254 330.32845727 -0.32701423 317.69850585 C-0.29898858 291.9704214 -0.2712433 266.24233665 -0.2436676 240.51425171 C-0.2417653 238.73989405 -0.2417653 238.73989405 -0.23982458 236.92969079 C-0.15518552 157.953132 -0.07708223 78.97656648 0 0 Z " fill="#FEC260" transform="translate(1684,423)"/>
<path d="M0 0 C0.99 0 1.98 0 3 0 C9.39489398 9.59234096 6.16771462 29.63141957 6.18945312 40.82983398 C6.19744914 43.13510721 6.20586235 45.44037901 6.21465302 47.74564934 C6.23755861 54.07118552 6.25452741 60.39672566 6.27049255 66.72228265 C6.28653459 72.89712849 6.30796922 79.07195697 6.32878125 85.2467882 C6.37151986 97.97467541 6.40975432 110.70257251 6.44555664 123.43048096 C6.48125844 136.11518209 6.51934031 148.79987284 6.56030273 161.48455811 C6.56286156 162.2774637 6.56542039 163.0703693 6.56805676 163.88730234 C6.5784747 167.1136503 6.58890489 170.33999821 6.59935078 173.56634608 C6.82740588 244.04129682 7.01734192 314.51634511 7.19517893 384.9914384 C7.23391563 400.3396057 7.27345237 415.68777076 7.31359863 431.03593445 C7.3188925 433.06241057 7.32418555 435.0888867 7.32947779 437.11536282 C7.36106283 449.20709986 7.36106283 449.20709986 7.39276218 461.29883659 C7.45289707 484.21027639 7.5100792 507.12171848 7.56104386 530.03318063 C7.59681584 546.10249793 7.6358867 562.17180422 7.6783514 578.24110526 C7.7036626 587.87005426 7.72602272 597.49900048 7.7443895 607.12796528 C7.75695786 613.58002815 7.77307546 620.03207567 7.79213145 626.48412263 C7.80292729 630.17712794 7.81207325 633.87011857 7.81688595 637.56313694 C7.82209192 641.53365984 7.8348816 645.50413644 7.84851074 649.47463989 C7.84880657 650.64280485 7.8491024 651.8109698 7.8494072 653.0145337 C7.8542651 654.06325978 7.859123 655.11198587 7.86412811 656.19249153 C7.86624408 657.10366112 7.86836005 658.01483071 7.87054014 658.95361149 C7.77323007 660.9935807 7.77323007 660.9935807 9 662 C9.08090971 663.62418745 9.13914995 665.24951745 9.1875 666.875 C10.2856606 679.917769 20.21258543 691.10007356 29.77734375 699.3359375 C32.73630059 701.55125493 35.51109996 702.81228935 39 704 C38.67 704.99 38.34 705.98 38 707 C27.494533 704.57566146 19.35770786 695.18500825 13 687 C4.40747979 673.19059252 2.84052327 658.69329937 2.86412811 642.77720165 C2.86158549 641.80551598 2.85904287 640.83383032 2.8564232 639.83269963 C2.8491331 636.59289851 2.84882866 633.35313576 2.84851074 630.11332703 C2.84465761 627.75976023 2.84036957 625.40619411 2.83568525 623.05262882 C2.82528912 617.27186433 2.81944078 611.49110781 2.81550839 605.71033562 C2.81052725 598.77960323 2.79977984 591.84888282 2.78879793 584.91815777 C2.7686502 572.11330079 2.7529447 559.30844204 2.73963928 546.50357628 C2.72135045 528.9584257 2.69663878 511.41328826 2.67026538 493.86814819 C2.65795625 485.67313284 2.6459632 477.47811702 2.63405609 469.28310108 C2.63286357 468.46255625 2.63167104 467.64201141 2.63044238 466.79660158 C2.60213089 447.26455044 2.57694092 427.73249546 2.55224609 408.20043945 C2.5511649 407.34614434 2.5500837 406.49184924 2.54896974 405.6116664 C2.53583489 395.2312643 2.52278539 384.8508621 2.50976673 374.47045986 C2.48926987 358.12980179 2.46862421 341.78914392 2.44775391 325.44848633 C2.44667444 324.60242467 2.44559497 323.75636301 2.4444828 322.88466312 C2.41971854 303.48755631 2.39408796 284.09045111 2.36594391 264.69334888 C2.36415853 263.46244343 2.36415853 263.46244343 2.36233709 262.2066712 C2.35041749 254.00128561 2.33835764 245.79590024 2.32608688 237.59051516 C2.2999634 220.09958307 2.27628625 202.6086529 2.25791349 185.11771085 C2.24443479 172.32184565 2.22768687 159.52598801 2.20781839 146.73013111 C2.19720967 139.83444136 2.18806756 132.93875862 2.18312263 126.04306221 C2.162002 98.04460867 2.01295675 70.05175382 1.58198895 42.05664235 C1.551061 40.02548871 1.52144799 37.99431949 1.49211174 35.9631423 C1.43603564 32.18349928 1.37398416 28.40400577 1.30974579 24.6244936 C1.29363068 23.52099265 1.27751557 22.4174917 1.26091212 21.28055132 C1.12954681 14.15315973 0.67625345 7.09622003 0 0 Z " fill="#F1BB56" transform="translate(146,613)"/>
<path d="M0 0 C1.5611684 -0.00352835 1.5611684 -0.00352835 3.15387556 -0.00712797 C6.65836025 -0.01381069 10.16280779 -0.01335996 13.66729832 -0.01294994 C16.19853906 -0.01624902 18.72977927 -0.01997468 21.26101881 -0.02409142 C27.49911754 -0.03306275 33.73720517 -0.03733828 39.97530947 -0.03961039 C47.44712438 -0.04257431 54.9189299 -0.05127286 62.39073988 -0.06002467 C80.45077669 -0.0808626 98.51081513 -0.09133796 116.57086115 -0.10015428 C125.11598955 -0.10436183 133.66111725 -0.10958369 142.20624506 -0.11483881 C171.46171638 -0.13272869 200.71718791 -0.14772424 229.97266388 -0.155159 C231.80912526 -0.15563375 233.64558663 -0.15610964 235.48204801 -0.15658666 C236.84811622 -0.15694122 236.84811622 -0.15694122 238.24178177 -0.15730295 C242.85583437 -0.15850414 247.46988696 -0.15971959 252.08393955 -0.16094494 C252.9996091 -0.16118509 253.91527866 -0.16142524 254.85869577 -0.16167267 C284.54238272 -0.16956441 314.2260297 -0.19299382 343.9096992 -0.22550088 C375.29858656 -0.25981254 406.68745053 -0.27951138 438.07635695 -0.28280324 C441.523394 -0.28322077 444.97043104 -0.28370033 448.41746807 -0.28422642 C449.26621527 -0.28434961 450.11496247 -0.2844728 450.98942928 -0.28459973 C464.63796816 -0.2869301 478.28646056 -0.30258097 491.93498288 -0.32306826 C505.6593064 -0.34334218 519.38357419 -0.34879616 533.10790991 -0.33929763 C541.2565865 -0.33408875 549.40507729 -0.33993108 557.55372708 -0.3618323 C563.64604142 -0.37696604 569.73814799 -0.37107566 575.83047301 -0.35716178 C578.28949765 -0.35478232 580.74854024 -0.35912669 583.20753741 -0.37099043 C603.89940337 -0.4646128 620.03144151 1.02242341 635.88642979 15.69672108 C649.39318576 29.84870425 652.87722168 46.66910329 652.81245518 65.6908617 C652.8126012 66.8234441 652.81274723 67.9560265 652.81289768 69.12292957 C652.81220416 72.84546327 652.80443803 76.56794618 652.79658604 80.29047108 C652.79471987 82.87978558 652.7932969 85.46910043 652.79229832 88.05841541 C652.78887763 94.16387128 652.78100587 100.26930637 652.77094883 106.37475443 C652.7597424 113.33006507 652.75426586 120.28537661 652.74925339 127.24069405 C652.73882194 141.53854606 652.72125082 155.83638293 652.69892979 170.13422108 C651.70892979 170.46422108 650.71892979 170.79422108 649.69892979 171.13422108 C649.69561964 170.57874907 649.69230949 170.02327705 649.68889904 169.45097256 C649.60719774 155.85024081 649.51483988 142.24961601 649.4114027 128.64903164 C649.36169169 122.07152462 649.31536164 115.49403174 649.27705479 108.91644764 C649.23988098 102.5556247 649.19343889 96.19492785 649.14086628 89.83421421 C649.12249129 87.42086874 649.10732276 85.00749642 649.09558582 82.59410954 C649.84069669 57.35672618 649.84069669 57.35672618 643.38642979 33.38422108 C643.10348057 32.75258045 642.82053135 32.12093983 642.52900791 31.47015858 C637.69226167 21.13174754 628.50126401 12.34369189 617.94502354 8.00140858 C617.0181876 7.6739867 616.09135166 7.34656483 615.13642979 7.00922108 C614.20701572 6.67664295 613.27760166 6.34406483 612.32002354 6.00140858 C608.52051766 4.74434404 605.25830491 4.00925787 601.24459636 4.00657058 C600.35088419 4.00355461 599.45717202 4.00053864 598.53637767 3.99743128 C597.55665437 3.99920075 596.57693107 4.00097022 595.56751919 4.00279331 C594.52079646 4.00074068 593.47407374 3.99868804 592.39563215 3.99657321 C588.85893287 3.99088127 585.32227227 3.99236316 581.78556919 3.99377918 C579.23599201 3.9911968 576.68641524 3.988184 574.13683903 3.98477578 C567.84578573 3.97753695 561.55474465 3.97500243 555.26368767 3.97444673 C547.73034638 3.97353365 540.19701296 3.96686778 532.66367506 3.9600999 C514.45433259 3.94403149 496.24499095 3.93813564 478.03564266 3.93335115 C469.42287543 3.93101602 460.81010886 3.92741346 452.19734215 3.92365578 C422.72015951 3.91081945 393.24297726 3.90010039 363.76579189 3.89665318 C361.9149886 3.89643154 360.06418531 3.89620976 358.21338201 3.89598782 C356.35808321 3.89576718 354.50278441 3.8955467 352.64748561 3.89532638 C348.92537586 3.89488382 345.2032661 3.89443671 341.48115635 3.8939867 C340.55828786 3.89387731 339.63541937 3.89376792 338.68458516 3.89365521 C308.75858395 3.89002435 278.83260696 3.8741036 248.90661502 3.85079634 C217.27391956 3.82620485 185.64123794 3.81248065 154.00853264 3.81128526 C150.53655855 3.8111138 147.06458445 3.81089837 143.59261036 3.81065083 C142.73770044 3.81059506 141.88279053 3.81053929 141.00197425 3.81048183 C127.23890828 3.80933078 113.47586714 3.79830414 99.71280956 3.78376377 C85.88079422 3.76940317 72.04881075 3.76615931 58.21679001 3.77420375 C49.99822908 3.7786621 41.77977095 3.77479121 33.56122351 3.75896524 C27.42569218 3.74807548 21.29026708 3.75284983 15.15473785 3.76373711 C12.67151821 3.76570192 10.18828833 3.76257975 7.70508312 3.75389275 C4.33167237 3.7428375 0.95878338 3.750263 -2.41461277 3.76228428 C-3.38028907 3.75468909 -4.34596537 3.74709389 -5.34090459 3.73926854 C-14.68567259 3.81123209 -22.41592344 6.16315028 -30.30107021 11.13422108 C-29.02135073 7.29506263 -27.63399925 6.40344936 -24.30107021 4.13422108 C-16.36009573 0.42516509 -8.64438626 -0.01326786 0 0 Z " fill="#FCCF62" transform="translate(1034.3010702133179,210.86577892303467)"/>
<path d="M0 0 C510.51 0 1021.02 0 1547 0 C1547 0.66 1547 1.32 1547 2 C1546.31249916 1.99907821 1545.62499832 1.99815641 1544.91666412 1.99720669 C1523.31830319 1.96875092 1501.71994217 1.95032589 1480.12156582 1.93891001 C1477.50959455 1.93750516 1474.89762336 1.9359871 1472.28565216 1.93445969 C1417.54443167 1.90230047 1417.54443167 1.90230047 1362.8046875 2.2578125 C1361.59984459 2.26992579 1360.39500168 2.28203907 1359.15364838 2.29451942 C1348.0866053 2.40812093 1337.0198411 2.53741521 1325.95327568 2.69069672 C1321.99708993 2.74465845 1318.0408513 2.79386361 1314.08459854 2.84263229 C1311.51411374 2.87655487 1308.9438574 2.91825798 1306.37350464 2.96084595 C1298.37190828 3.0719368 1290.40815319 3.0002093 1282.41287214 2.64894903 C1257.79999594 1.61613793 1233.15781923 1.85672462 1208.52873083 1.86833235 C1201.17193005 1.87158694 1193.815134 1.86889587 1186.45833344 1.86612797 C1172.02317073 1.86088866 1157.58801247 1.86130963 1143.15284934 1.86420688 C1130.46096065 1.86674074 1117.76907357 1.86737084 1105.07718468 1.86618423 C1103.80527385 1.86606966 1103.80527385 1.86606966 1102.50766785 1.86595276 C1099.06300065 1.86564128 1095.61833345 1.86532287 1092.17366626 1.864993 C1059.87448864 1.86193734 1027.57531381 1.86469747 995.27613663 1.8700899 C966.87980897 1.87479505 938.48348581 1.87444451 910.0871582 1.86962891 C877.98057301 1.86420197 845.87399032 1.8621937 813.76740474 1.86524117 C810.30083033 1.86556169 806.83425591 1.86587455 803.3676815 1.86618423 C802.51451734 1.86626331 801.66135318 1.86634239 800.78233556 1.86642386 C789.01384362 1.86746377 777.24535332 1.86659691 765.4768616 1.8641983 C745.63536953 1.8602111 725.79388304 1.86096195 705.95239258 1.87060547 C704.81522345 1.87114954 704.81522345 1.87114954 703.65508121 1.87170461 C653.29804879 1.89679765 602.9458549 2.15747277 552.59109974 2.63935661 C547.92242314 2.68396437 543.25374603 2.72851741 538.58506775 2.77294922 C536.90529866 2.78900777 536.90529866 2.78900777 535.19159485 2.80539073 C499.4523206 3.14304733 463.71178621 3.15361739 427.97119141 3.13037109 C420.35432277 3.12562178 412.73747428 3.12567302 405.12060547 3.13037109 C331.49382973 3.17491283 331.49382973 3.17491283 300.86560631 2.35359764 C289.83430042 2.05854528 278.91440663 2.01413895 267.88801575 2.62080383 C259.41678143 3.06531932 250.97367451 3.00999991 242.49609375 2.87890625 C241.76533253 2.86763073 241.0345713 2.85635521 240.2816658 2.84473801 C235.75588716 2.77249683 231.23032087 2.69047426 226.70477295 2.60510254 C219.98953576 2.47892181 213.27413274 2.36278636 206.55859375 2.25390625 C205.40246897 2.2350556 205.40246897 2.2350556 204.22298813 2.21582413 C191.21167457 2.00949486 178.20414396 1.97439848 165.19140625 1.99609375 C144.76199022 2.02958133 124.33498256 1.92996868 103.90625 1.78125 C102.7651291 1.77297782 102.7651291 1.77297782 101.60095525 1.76453853 C92.27881029 1.69682252 82.95668743 1.62634497 73.63457257 1.55461735 C65.57811164 1.49270415 57.52163529 1.43291543 49.46515751 1.37324238 C32.9767544 1.251071 16.48837102 1.12643026 0 1 C0 0.67 0 0.34 0 0 Z " fill="#D7B060" transform="translate(137,423)"/>
<path d="M0 0 C0.33 0 0.66 0 1 0 C1 113.85 1 227.7 1 345 C1.99 345.33 2.98 345.66 4 346 C4.00257813 346.66644531 4.00515625 347.33289062 4.0078125 348.01953125 C4.5765238 361.57381724 12.83976725 372.37081022 22.5 381.375 C26.1554215 384.5225499 29.44629412 386.44980225 34 388 C33.67 388.99 33.34 389.98 33 391 C22.494533 388.57566146 14.35770786 379.18500825 8 371 C-1.1467682 356.29983682 -2.15965356 341.00058916 -2.12698364 324.12132263 C-2.12854363 322.86845099 -2.13010362 321.61557935 -2.13171089 320.3247419 C-2.13585502 316.87669515 -2.13383583 313.42867636 -2.13072467 309.98062956 C-2.12845026 306.24954587 -2.13196054 302.51846679 -2.13470459 298.78738403 C-2.13914146 291.48559071 -2.13819451 284.18380769 -2.13529195 276.88201397 C-2.13302714 270.93617906 -2.13273007 264.99034702 -2.13381577 259.0445118 C-2.133969 258.19592236 -2.13412223 257.34733292 -2.13428011 256.47302865 C-2.13459987 254.74856154 -2.13492408 253.02409442 -2.1352527 251.29962731 C-2.13810207 235.13926924 -2.13483033 218.97891685 -2.12945233 202.81855971 C-2.12499691 189.00444385 -2.12575084 175.19033641 -2.13037109 161.3762207 C-2.13574745 145.2941825 -2.13781472 129.2121493 -2.13475883 113.13011032 C-2.13444033 111.40764844 -2.13412596 109.68518657 -2.13381577 107.96272469 C-2.13366149 107.11551799 -2.13350721 106.2683113 -2.13334826 105.39543168 C-2.13249135 99.4763878 -2.1339283 93.55734714 -2.13629532 87.63830376 C-2.1391282 80.39550689 -2.13828322 73.15272082 -2.13301457 65.90992516 C-2.13042203 62.22671203 -2.12929477 58.54351679 -2.13266373 54.86030388 C-2.14426515 40.95914565 -2.05902235 27.0721576 -1.55441284 13.17860413 C-1.49630926 11.52275036 -1.49630926 11.52275036 -1.43703187 9.83344501 C-1.39572423 8.82843655 -1.3544166 7.82342809 -1.31185722 6.78796482 C-1.27602307 5.90739369 -1.24018892 5.02682256 -1.20326889 4.11956745 C-1 2 -1 2 0 0 Z " fill="#FFC860" transform="translate(151,929)"/>
<path d="M0 0 C6.85018059 2.11732854 11.60534677 5.31641706 17 10 C17.68191406 10.57492188 18.36382813 11.14984375 19.06640625 11.7421875 C30.31609739 22.00120134 35.67150475 36.09519635 37 51 C37.13495735 54.85278692 37.1266505 58.70182985 37.11352539 62.55664062 C37.11367142 63.68922302 37.11381744 64.82180542 37.1139679 65.9887085 C37.11327437 69.7112422 37.10550825 73.4337251 37.09765625 77.15625 C37.09579008 79.7455645 37.09436712 82.33487936 37.09336853 84.92419434 C37.08994784 91.02965021 37.08207608 97.13508529 37.07201904 103.24053335 C37.06081261 110.19584399 37.05533607 117.15115553 37.05032361 124.10647297 C37.03989215 138.40432498 37.02232103 152.70216185 37 167 C36.01 167.33 35.02 167.66 34 168 C33.99668985 167.44452799 33.99337971 166.88905598 33.98996925 166.31675148 C33.90826795 152.71601974 33.81591009 139.11539493 33.71247292 125.51481056 C33.6627619 118.93730355 33.61643185 112.35981066 33.578125 105.78222656 C33.5409512 99.42140362 33.49450911 93.06070677 33.44193649 86.69999313 C33.4235615 84.28664766 33.40839297 81.87327534 33.39665604 79.45988846 C34.1417669 54.2225051 34.1417669 54.2225051 27.6875 30.25 C27.40455078 29.61835938 27.12160156 28.98671875 26.83007812 28.3359375 C21.57534434 17.10408967 11.55216196 8.29080301 0 4 C0 2.68 0 1.36 0 0 Z " fill="#FCC163" transform="translate(1650,214)"/>
<path d="M0 0 C0.99 0 1.98 0 3 0 C3.00586624 0.61480225 3.01173248 1.22960449 3.01777649 1.86303711 C3.30786219 31.1243218 3.84883721 60.33681757 5.375 89.5625 C5.4607579 91.29947144 5.4607579 91.29947144 5.54824829 93.0715332 C6.2928354 107.91193368 7.36988361 122.54473351 11 137 C11.13808201 138.70478168 11.21937152 140.41490962 11.25 142.125 C11.27578125 142.99382812 11.3015625 143.86265625 11.328125 144.7578125 C11.21984375 145.49773437 11.1115625 146.23765625 11 147 C9.515 147.99 9.515 147.99 8 149 C7.89042969 148.04222656 7.78085938 147.08445312 7.66796875 146.09765625 C6.91948381 139.75569816 6.13718871 133.45346407 4.90718079 127.18444824 C-0.14677641 100.84667409 0.59298951 73.80071084 0.39910889 47.09924316 C0.3585112 41.77508722 0.30767903 36.45102889 0.2578125 31.12695312 C0.16208838 20.75137152 0.0773665 10.37573364 0 0 Z " fill="#F9CE60" transform="translate(133,423)"/>
<path d="M0 0 C0.33 0 0.66 0 1 0 C1 88.44 1 176.88 1 268 C0.67 268 0.34 268 0 268 C-0.33 192.76 -0.66 117.52 -1 40 C-1.33 40 -1.66 40 -2 40 C-2.0270203 37.24993392 -2.04684883 34.50013454 -2.0625 31.75 C-2.07087891 30.97269531 -2.07925781 30.19539062 -2.08789062 29.39453125 C-2.09111328 28.64042969 -2.09433594 27.88632812 -2.09765625 27.109375 C-2.10289307 26.41811523 -2.10812988 25.72685547 -2.11352539 25.01464844 C-1.99394883 22.8926145 -1.52110036 21.05666227 -1 19 C-0.85870882 17.48729395 -0.75537183 15.97071872 -0.68359375 14.453125 C-0.64169922 13.60878906 -0.59980469 12.76445313 -0.55664062 11.89453125 C-0.51732422 11.02183594 -0.47800781 10.14914062 -0.4375 9.25 C-0.39431641 8.36183594 -0.35113281 7.47367188 -0.30664062 6.55859375 C-0.20086385 4.37254037 -0.09877454 2.18637911 0 0 Z " fill="#FFE574" transform="translate(150,647)"/>
<path d="M0 0 C0.33 0 0.66 0 1 0 C1 77.22 1 154.44 1 234 C0.67 234 0.34 234 0 234 C0 166.68 0 99.36 0 30 C-0.66 30 -1.32 30 -2 30 C-1.88182083 26.04878772 -1.75757767 22.09781771 -1.62768555 18.14697266 C-1.56301749 16.14105193 -1.50316894 14.13497772 -1.44335938 12.12890625 C-1.40146484 10.87207031 -1.35957031 9.61523438 -1.31640625 8.3203125 C-1.26141968 6.57645264 -1.26141968 6.57645264 -1.20532227 4.79736328 C-1 2 -1 2 0 0 Z " fill="#FFE373" transform="translate(151,929)"/>
<path d="M0 0 C0.33 0.66 0.66 1.32 1 2 C0.34 2.66 -0.32 3.32 -1 4 C-1.66 4.70125 -2.32 5.4025 -3 6.125 C-5 8 -5 8 -7 8 C-7.39058594 8.87398438 -7.39058594 8.87398438 -7.7890625 9.765625 C-9.07588751 12.14002469 -10.52252801 13.79236584 -12.375 15.75 C-24.85097889 29.85328048 -24.63194103 48.07555051 -24.75 65.875 C-24.77821394 68.02736718 -24.80814876 70.17971252 -24.83984375 72.33203125 C-24.91305759 77.55460174 -24.96507543 82.77704031 -25 88 C-25.99 87.67 -26.98 87.34 -28 87 C-28.05016334 81.86288814 -28.08607287 76.72592486 -28.10986328 71.58862305 C-28.11980124 69.84803783 -28.13335628 68.10746875 -28.15087891 66.36694336 C-28.36016937 45.01315995 -27.25085525 26.40384087 -12 10 C-11.02933594 8.94425781 -11.02933594 8.94425781 -10.0390625 7.8671875 C-6.9533379 4.6467151 -4.00545883 2.06341818 0 0 Z " fill="#FBD946" transform="translate(161,294)"/>
<path d="M0 0 C0.66 0.33 1.32 0.66 2 1 C1.01 1.66 0.02 2.32 -1 3 C-1.433125 3.8971875 -1.433125 3.8971875 -1.875 4.8125 C-3.39916189 7.77614812 -5.64303107 9.64303107 -8 12 C-13.81273607 18.92270577 -16.81683142 25.50808532 -18.5625 34.4375 C-21.03425573 45.57223365 -28.23866049 58.92899536 -37.5 65.875 C-40.35730001 67.16078501 -41.12136859 66.89042412 -44 66 C-43.443125 65.6803125 -42.88625 65.360625 -42.3125 65.03125 C-31.86366942 58.11242975 -28.09366078 46.27571671 -24 34.9375 C-19.37385532 22.16871553 -12.94605872 6.47302936 0 0 Z " fill="#FDD565" transform="translate(1006,217)"/>
<path d="M0 0 C68.805 0.495 68.805 0.495 139 1 C139 1.33 139 1.66 139 2 C138.4297793 2.00423194 137.8595586 2.00846388 137.27205849 2.01282406 C123.40993039 2.11604024 109.54785453 2.22472698 95.68581581 2.33933926 C88.98229349 2.39466372 82.27876584 2.44814444 75.57519531 2.49731445 C69.11074288 2.54491442 62.64634491 2.59725559 56.18195724 2.65294075 C53.71072107 2.67338413 51.23946995 2.69209387 48.76820755 2.70907402 C45.31758447 2.73307415 41.86706509 2.7631347 38.41650391 2.79467773 C36.87039177 2.80331093 36.87039177 2.80331093 35.29304504 2.81211853 C34.35632462 2.82190735 33.41960419 2.83169617 32.45449829 2.84178162 C31.22943542 2.85146044 31.22943542 2.85146044 29.97962379 2.8613348 C27.92406089 2.8781269 27.92406089 2.8781269 26 4 C26 3.34 26 2.68 26 2 C22.18718055 2.13815529 18.37484283 2.28680562 14.5625 2.4375 C12.92958008 2.49647461 12.92958008 2.49647461 11.26367188 2.55664062 C9.71196289 2.61948242 9.71196289 2.61948242 8.12890625 2.68359375 C7.17056885 2.72025146 6.21223145 2.75690918 5.22485352 2.79467773 C3.02861075 2.75834424 3.02861075 2.75834424 2 4 C1.87692689 5.71774167 1.82213442 7.44042739 1.79467773 9.16235352 C1.77473251 10.26341934 1.75478729 11.36448517 1.73423767 12.49891663 C1.71752518 13.6968132 1.70081268 14.89470978 1.68359375 16.12890625 C1.66281265 17.34827377 1.64203156 18.5676413 1.62062073 19.82395935 C1.55499572 23.73674645 1.49618028 27.64960317 1.4375 31.5625 C1.39432709 34.20768962 1.35071322 36.85287209 1.30664062 39.49804688 C1.1993012 45.99862336 1.09755933 52.49926979 1 59 C0.67 59 0.34 59 0 59 C0 39.53 0 20.06 0 0 Z " fill="#E3B458" transform="translate(136,423)"/>
<path d="M0 0 C0.33 0 0.66 0 1 0 C1.02333542 18.74072425 1.04098235 37.48144557 1.05181217 56.22218132 C1.05697376 64.92335368 1.06401385 73.62451702 1.07543945 82.32568359 C1.08539047 89.90748161 1.09185443 97.4892731 1.09408849 105.07107747 C1.09539489 109.08750219 1.09847626 113.10390824 1.10573006 117.120327 C1.11249685 120.89755057 1.11461561 124.67474771 1.11310768 128.45197678 C1.11338371 129.84116255 1.11538494 131.23034917 1.11920547 132.61952972 C1.12415291 134.51057807 1.12239515 136.40164048 1.12025452 138.29269409 C1.12117631 139.35275602 1.1220981 140.41281796 1.12304783 141.50500298 C1 144 1 144 0 146 C-0.15378852 147.95774069 -0.24971463 149.92017352 -0.31640625 151.8828125 C-0.37924805 153.63271484 -0.37924805 153.63271484 -0.44335938 155.41796875 C-0.50233398 157.25294922 -0.50233398 157.25294922 -0.5625 159.125 C-0.60568359 160.35605469 -0.64886719 161.58710937 -0.69335938 162.85546875 C-0.79968704 165.90352853 -0.90171781 168.9516719 -1 172 C-1.33 172 -1.66 172 -2 172 C-2.02467467 166.34000977 -2.04284788 160.68005068 -2.05493164 155.02001953 C-2.05996787 153.09358169 -2.06679712 151.16714769 -2.07543945 149.24072266 C-2.08753608 146.47557632 -2.09323533 143.71048042 -2.09765625 140.9453125 C-2.10281754 140.0806839 -2.10797882 139.2160553 -2.11329651 138.32522583 C-2.11387171 132.22774341 -2.11387171 132.22774341 -1 130 C-0.89504975 128.2771171 -0.85342156 126.55022548 -0.84178162 124.82418823 C-0.8319928 123.72759888 -0.82220398 122.63100952 -0.81211853 121.50119019 C-0.80348534 119.688582 -0.80348534 119.688582 -0.79467773 117.83935547 C-0.78477814 116.57109924 -0.77487854 115.30284302 -0.76467896 113.99615479 C-0.73760179 110.5129335 -0.71660749 107.02969863 -0.69667697 103.54643011 C-0.67483473 99.90821693 -0.64743744 96.27004576 -0.62062073 92.63186646 C-0.57066997 85.74000879 -0.52574 78.84812784 -0.48259836 71.95622456 C-0.43324633 64.11107606 -0.37832067 56.26596971 -0.32291877 48.42086196 C-0.20906215 32.28061348 -0.10223114 16.14032639 0 0 Z " fill="#FEC862" transform="translate(151,785)"/>
<path d="M0 0 C5.33566569 5.33566569 4.10672683 19.00705036 4.13623047 26.27392578 C4.12012425 30.18353513 4.07209215 34.09100322 4 38 C3.67 37.34 3.34 36.68 3 36 C0.97536745 35.34786708 0.97536745 35.34786708 -1 35 C-3.18842083 26.19421143 -4.4490156 18.08009321 -4 9 C-3.01 9 -2.02 9 -1 9 C-0.67 6.03 -0.34 3.06 0 0 Z " fill="#B9901A" transform="translate(144,571)"/>
<path d="M0 0 C0.66 0.33 1.32 0.66 2 1 C2.203125 3.1171875 2.203125 3.1171875 2.25 5.875 C3.22976219 18.91597254 13.23215233 30.1169219 22.77734375 38.3359375 C25.73630059 40.55125493 28.51109996 41.81228935 32 43 C31.67 43.99 31.34 44.98 31 46 C20.50501092 43.57807944 12.34046522 34.18887203 6 26 C2.49113149 20.24659211 -0.3180507 14.7727841 -1 8 C-0.67 7.01 -0.34 6.02 0 5 C0.03874921 3.33378384 0.0450286 1.66605828 0 0 Z " fill="#FCD45C" transform="translate(153,1274)"/>
<path d="M0 0 C0.33 0 0.66 0 1 0 C1 32.34 1 64.68 1 98 C0.67 98 0.34 98 0 98 C-0.495 69.29 -0.495 69.29 -1 40 C-1.33 40 -1.66 40 -2 40 C-2.0270203 37.24993392 -2.04684883 34.50013454 -2.0625 31.75 C-2.07087891 30.97269531 -2.07925781 30.19539062 -2.08789062 29.39453125 C-2.09111328 28.64042969 -2.09433594 27.88632812 -2.09765625 27.109375 C-2.10289307 26.41811523 -2.10812988 25.72685547 -2.11352539 25.01464844 C-1.99394883 22.8926145 -1.52110036 21.05666227 -1 19 C-0.85870882 17.48729395 -0.75537183 15.97071872 -0.68359375 14.453125 C-0.64169922 13.60878906 -0.59980469 12.76445313 -0.55664062 11.89453125 C-0.51732422 11.02183594 -0.47800781 10.14914062 -0.4375 9.25 C-0.39431641 8.36183594 -0.35113281 7.47367188 -0.30664062 6.55859375 C-0.20086385 4.37254037 -0.09877454 2.18637911 0 0 Z " fill="#FEE163" transform="translate(150,647)"/>
<path d="M0 0 C0.33 0 0.66 0 1 0 C1.03738281 0.80179688 1.07476562 1.60359375 1.11328125 2.4296875 C1.72527691 13.01361243 2.90145609 23.78679972 5.53222656 34.08300781 C6.11210985 36.45943976 6.2062227 38.68076769 6.25 41.125 C6.28867188 42.42824219 6.28867188 42.42824219 6.328125 43.7578125 C6.21984375 44.49773438 6.1115625 45.23765625 6 46 C5.01 46.66 4.02 47.32 3 48 C2.89042969 47.04222656 2.78085938 46.08445312 2.66796875 45.09765625 C1.71028017 36.98304764 0.55724043 28.95491049 -1.03442383 20.93774414 C-1.93567393 16.18922832 -2.118033 11.80716222 -2 7 C-1.67 7 -1.34 7 -1 7 C-0.67 4.69 -0.34 2.38 0 0 Z " fill="#F8C456" transform="translate(138,524)"/>
<path d="M0 0 C0 13.86 0 27.72 0 42 C-0.99 41.67 -1.98 41.34 -3 41 C-3 27.8 -3 14.6 -3 1 C-1 0 -1 0 0 0 Z " fill="#858382" transform="translate(1687,381)"/>
<path d="M0 0 C3.75492121 3.75492121 3.05325448 10.06988528 3.09765625 15.15625 C3.09110744 16.93752651 3.07932828 18.71879094 3.0625 20.5 C3.05798828 21.4178125 3.05347656 22.335625 3.04882812 23.28125 C3.03716326 25.52090391 3.02079614 27.76041545 3 30 C2.34 30.33 1.68 30.66 1 31 C-0.69735605 25.11627964 -1.28476406 19.91965926 -1.1875 13.8125 C-1.18685547 13.03197266 -1.18621094 12.25144531 -1.18554688 11.44726562 C-1.15546151 7.50608238 -0.963589 3.8466473 0 0 Z " fill="#A47913" transform="translate(144,571)"/>
<path d="M0 0 C1.2693998 3.80819941 0.44533222 4.98370721 -0.890625 8.7265625 C-3.9962916 19.10996589 -3.67697164 29.61775334 -3.75 40.375 C-3.77821587 42.47919061 -3.80815094 44.58335889 -3.83984375 46.6875 C-3.9130348 51.79162588 -3.96301541 56.89548865 -4 62 C-4.33 62 -4.66 62 -5 62 C-5.1942683 55.15016894 -5.37151308 48.30004663 -5.53710938 41.44946289 C-5.595392 39.1205862 -5.6575249 36.79180247 -5.72363281 34.46313477 C-5.818156 31.10971 -5.89868084 27.75619129 -5.9765625 24.40234375 C-6.00875885 23.36665756 -6.0409552 22.33097137 -6.0741272 21.26390076 C-6.18794293 15.73167767 -5.87579696 11.2208615 -4 6 C-3.34 6 -2.68 6 -2 6 C-1.34 4.02 -0.68 2.04 0 0 Z " fill="#FEDC6E" transform="translate(140,319)"/>
<path d="M0 0 C0.66 0.33 1.32 0.66 2 1 C2.22927441 4.62398562 2.42948303 8.2490489 2.625 11.875 C2.68945312 12.88820313 2.75390625 13.90140625 2.8203125 14.9453125 C3.15271784 21.42721668 3.15664449 27.79414544 1 34 C0.01 34.495 0.01 34.495 -1 35 C-0.67 31.37 -0.34 27.74 0 24 C-0.66 24.33 -1.32 24.66 -2 25 C-1.34 16.75 -0.68 8.5 0 0 Z " fill="#FAC856" transform="translate(1684,1250)"/>
<path d="M0 0 C0.66 0.33 1.32 0.66 2 1 C-0.01448686 3.16370811 -1.80636752 4.88789698 -4.375 6.375 C-10.39644732 10.10256262 -13.65626477 14.88903562 -17 21 C-18.75 22.9375 -18.75 22.9375 -20 24 C-19.54444822 16.71117145 -13.13500754 10.64595921 -8 6 C-5.3735209 3.94300048 -2.70457772 1.95293329 0 0 Z " fill="#EAB751" transform="translate(1011,217)"/>
<path d="M0 0 C0.99 0 1.98 0 3 0 C3 5.61 3 11.22 3 17 C2.34 17.33 1.68 17.66 1 18 C-0.32594359 12.03325384 -0.0884587 6.07416385 0 0 Z " fill="#D09B2D" transform="translate(140,580)"/>
<path d="M0 0 C0.99 0.66 1.98 1.32 3 2 C2.64989059 10.19256018 2.64989059 10.19256018 -0.0625 13.5625 C-0.701875 14.036875 -1.34125 14.51125 -2 15 C-2 14.01 -2 13.02 -2 12 C-2.99 13.32 -3.98 14.64 -5 16 C-4.34309381 12.21760329 -3.279869 8.78158474 -1.9375 5.1875 C-1.57527344 4.21167969 -1.21304688 3.23585937 -0.83984375 2.23046875 C-0.42412109 1.12638672 -0.42412109 1.12638672 0 0 Z " fill="#F8CE53" transform="translate(983,249)"/>
<path d="M0 0 C0.99 0 1.98 0 3 0 C5.42130331 3.63195496 5.21022785 5.38349348 5.125 9.6875 C5.10695312 10.86699219 5.08890625 12.04648437 5.0703125 13.26171875 C5.03550781 14.61716797 5.03550781 14.61716797 5 16 C4.67 16 4.34 16 4 16 C3.67 14.35 3.34 12.7 3 11 C2.34 11 1.68 11 1 11 C0.67 7.37 0.34 3.74 0 0 Z " fill="#F2BB4D" transform="translate(146,613)"/>
<path d="M0 0 C0.33 0 0.66 0 1 0 C1.25515919 7.52719602 0.28297723 14.58851545 -1 22 C-1.99 22 -2.98 22 -4 22 C-3.51982267 16.42741573 -2.62266441 11.37507587 -1 6 C-0.63729412 4.00511766 -0.29359301 2.0062189 0 0 Z " fill="#FEDB69" transform="translate(1684,1268)"/>
<path d="M0 0 C0.33 0 0.66 0 1 0 C2.06059488 7.68931285 2.09928082 15.24506486 2 23 C-0.07168402 21.32607931 -0.94044082 20.52106974 -1.2487793 17.82348633 C-1.19117432 17.00130615 -1.13356934 16.17912598 -1.07421875 15.33203125 C-1.01943359 14.43935547 -0.96464844 13.54667969 -0.90820312 12.62695312 C-0.83537109 11.69818359 -0.76253906 10.76941406 -0.6875 9.8125 C-0.62626953 8.87212891 -0.56503906 7.93175781 -0.50195312 6.96289062 C-0.34870489 4.64059043 -0.1808714 2.32028542 0 0 Z " fill="#FFF273" transform="translate(136,510)"/>
<path d="M0 0 C0.33 0 0.66 0 1 0 C1.33 5.61 1.66 11.22 2 17 C1.01 16.67 0.02 16.34 -1 16 C-1.02685095 13.52076199 -1.04676547 11.0418116 -1.0625 8.5625 C-1.07506836 7.50192383 -1.07506836 7.50192383 -1.08789062 6.41992188 C-1.09653588 4.61306441 -1.05220011 2.80612397 -1 1 C-0.67 0.67 -0.34 0.34 0 0 Z " fill="#956D0B" transform="translate(144,575)"/>
<path d="M0 0 C2.77867692 2.77867692 2.65193902 5.1713292 3 9 C2.67 9.33 2.34 9.66 2 10 C1.76712992 11.68183948 1.58735834 13.3712416 1.4375 15.0625 C1.31181641 16.44115234 1.31181641 16.44115234 1.18359375 17.84765625 C1.12300781 18.55792969 1.06242187 19.26820313 1 20 C0.67 20 0.34 20 0 20 C-0.19522373 17.41703983 -0.38144403 14.83395921 -0.5625 12.25 C-0.61857422 11.52039063 -0.67464844 10.79078125 -0.73242188 10.0390625 C-0.97709908 6.45046349 -0.99666259 3.44972775 0 0 Z " fill="#F7C75E" transform="translate(1683,251)"/>
<path d="M0 0 C0.6875 1.6875 0.6875 1.6875 1 4 C-0.3125 6.75 -0.3125 6.75 -2 9 C-2.66 9 -3.32 9 -4 9 C-4.66 10.98 -5.32 12.96 -6 15 C-7 12 -7 12 -6.07421875 9.58984375 C-5.61660156 8.71457031 -5.15898437 7.83929688 -4.6875 6.9375 C-4.23761719 6.05964844 -3.78773438 5.18179687 -3.32421875 4.27734375 C-2 2 -2 2 0 0 Z " fill="#FBC95C" transform="translate(144,310)"/>
<path d="M0 0 C0.33 0 0.66 0 1 0 C1 3.96 1 7.92 1 12 C-0.32 11.67 -1.64 11.34 -3 11 C-3.33 9.68 -3.66 8.36 -4 7 C-3.01 7 -2.02 7 -1 7 C-0.67 4.69 -0.34 2.38 0 0 Z " fill="#D89E2E" transform="translate(148,600)"/>
<path d="M0 0 C0.08090971 1.62418745 0.13914995 3.24951745 0.1875 4.875 C0.22230469 5.77992188 0.25710937 6.68484375 0.29296875 7.6171875 C0.19628906 8.40351562 0.09960938 9.18984375 0 10 C-0.99 10.66 -1.98 11.32 -3 12 C-3 8.37 -3 4.74 -3 1 C-1 0 -1 0 0 0 Z " fill="#F8C83B" transform="translate(144,560)"/>
<path d="M0 0 C0.66 0.66 1.32 1.32 2 2 C-7.41002278 3.33257403 -7.41002278 3.33257403 -12 2 C-12 1.67 -12 1.34 -12 1 C-7.94392005 0.01670789 -4.16937798 -0.23600253 0 0 Z " fill="#FFEE6A" transform="translate(1641,1322)"/>
<path d="M0 0 C0.33 0 0.66 0 1 0 C3.14285714 7.42857143 3.14285714 7.42857143 4 11 C2.35 10.01 0.7 9.02 -1 8 C-0.67 5.36 -0.34 2.72 0 0 Z " fill="#AF851A" transform="translate(143,594)"/>
<path d="M0 0 C0.66 0 1.32 0 2 0 C2 2.97 2 5.94 2 9 C1.01 9.495 1.01 9.495 0 10 C-1.125 2.25 -1.125 2.25 0 0 Z " fill="#D6A522" transform="translate(141,588)"/>
<path d="M0 0 C0.33 0.99 0.66 1.98 1 3 C1.66 3 2.32 3 3 3 C1.25 7.875 1.25 7.875 -1 9 C-1.80967438 6.08517222 -2.21845993 4.53886783 -1.0625 1.6875 C-0.711875 1.130625 -0.36125 0.57375 0 0 Z " fill="#F9CB50" transform="translate(1679,1287)"/>
<path d="M0 0 C2.8670615 2.8670615 4 4.91591468 4 9 C3.01 9 2.02 9 1 9 C0.45627049 5.94152152 0 3.11227195 0 0 Z " fill="#FFE86C" transform="translate(154,1284)"/>
<path d="M0 0 C0.66 0.33 1.32 0.66 2 1 C1.67 2.98 1.34 4.96 1 7 C0.01 7 -0.98 7 -2 7 C-1.125 1.125 -1.125 1.125 0 0 Z " fill="#EBB341" transform="translate(142,573)"/>
<path d="" fill="#FFFF00" transform="translate(0,0)"/>
<path d="" fill="#FFFF00" transform="translate(0,0)"/>
</svg>
